<svg xmlns="http://www.w3.org/2000/svg" width="22.581" height="23.214" viewBox="0 0 22.581 23.214">
  <path id="Icon_material-settings" data-name="Icon material-settings" d="M23.323,15.744a9.046,9.046,0,0,0,.081-1.137,9.046,9.046,0,0,0-.081-1.137l2.449-1.915a.586.586,0,0,0,.139-.743L23.59,6.8a.583.583,0,0,0-.708-.255L19.992,7.7A8.48,8.48,0,0,0,18.03,6.563l-.441-3.076A.566.566,0,0,0,17.02,3H12.377a.566.566,0,0,0-.569.487l-.441,3.076A8.917,8.917,0,0,0,9.406,7.7L6.516,6.54a.566.566,0,0,0-.708.255L3.486,10.811a.572.572,0,0,0,.139.743l2.449,1.915a9.2,9.2,0,0,0-.081,1.137,9.2,9.2,0,0,0,.081,1.137L3.626,17.66a.586.586,0,0,0-.139.743l2.321,4.016a.583.583,0,0,0,.708.255l2.89-1.161a8.48,8.48,0,0,0,1.962,1.137l.441,3.076a.566.566,0,0,0,.569.487H17.02a.566.566,0,0,0,.569-.487l.441-3.076a8.917,8.917,0,0,0,1.962-1.137l2.89,1.161a.566.566,0,0,0,.708-.255L25.911,18.4a.586.586,0,0,0-.139-.743l-2.449-1.915ZM14.7,18.669a4.062,4.062,0,1,1,4.062-4.062A4.067,4.067,0,0,1,14.7,18.669Z" transform="translate(-3.406 -3)" fill="#ed1c24"/>
</svg>
