<svg xmlns="http://www.w3.org/2000/svg" width="341.562" height="397.523" viewBox="0 0 341.562 397.523">
  <g id="Group_351" data-name="Group 351" transform="translate(-601.57 -183.753)">
    <path id="Path_596" data-name="Path 596" d="M778.871,586.566c-13.557-9.243-2.444-12.206,10.633-11.887-6.038-6.616-1.831-12.764,14.112-19.426,7.156-2.992,15.612-1.051,23.8,3.164,7.067-12.618,16.2-21.166,26.065-16.243,8.153,4.073,14.115,8.919,17.732,14.04,2.633-1.006,5.459-1.949,8.478-2.809,6.572-1.875,11.3-.242,14.579,3.478,13.055-7.366,26.12-11.586,33.438-6.191,12.726,9.387,14.11,17.177,5.171,24.691,13.046.691,22.674,5.2,5.14,15.267,15.592-1.415,26.593.439,19.532,9.833-15.748,20.941-85.5,23.208-137,12.555-32.707-2.394-59.715-9.046-64.48-19.909C752.566,585.133,764.061,584.387,778.871,586.566Z" transform="translate(-19.158 -44.451)" fill="#c5e1f9"/>
    <path id="Path_597" data-name="Path 597" d="M604.8,623.438c-2.872-5.84.644-11.07,14.149-14.367a81.281,81.281,0,0,1,40.457.91c-27.429-16.857-59.43-40.815-30.33-45.045,9.074-1.319,23.059,4.053,38.627,12.727-17.406-18.453-27-33.828-16.525-37.228,9.728-3.163,29.665,11.591,50.9,31.4-12.127-16.851-19.17-31.716-13.793-39.116,4.393-6.043,13.846.246,24.739,12.188-.532-10.9,2.806-17.65,10.495-16.666,7.231.924,13.141,13.307,17.391,28.3,6.827-23.839,25.073-39.043,43.577-32.72,21.735,7.427,4.557,64.609-5.031,91.857Z" transform="translate(-0.286 -42.162)" fill="#d4edff"/>
    <g id="Group_332" data-name="Group 332" transform="translate(812.672 462.543)">
      <g id="Group_330" data-name="Group 330" transform="translate(13.765)">
        <path id="Path_598" data-name="Path 598" d="M874.409,510a9.846,9.846,0,0,1,.817-5.973c.538-.994,2.3-2.256,3.33-1.7s1.184,2.271.4,3.715A9.836,9.836,0,0,1,874.409,510Z" transform="translate(-860.389 -502.192)" fill="#8dcfff"/>
        <path id="Path_599" data-name="Path 599" d="M871.99,516.1a8.374,8.374,0,0,1,4.3-2.971c.949-.227,2.781.2,3.022,1.22s-.763,2.127-2.141,2.456A8.367,8.367,0,0,1,871.99,516.1Z" transform="translate(-860.107 -503.546)" fill="#8dcfff"/>
        <path id="Path_600" data-name="Path 600" d="M867.972,522.032a8.364,8.364,0,0,1,5.132-.959c.959.18,2.455,1.322,2.261,2.347s-1.566,1.628-2.958,1.368A8.361,8.361,0,0,1,867.972,522.032Z" transform="translate(-859.606 -504.53)" fill="#8dcfff"/>
        <path id="Path_601" data-name="Path 601" d="M871.285,515.655a9.375,9.375,0,0,1-3.509-3.711c-.423-.878-.532-2.695.235-3.063s1.93.443,2.547,1.718A9.374,9.374,0,0,1,871.285,515.655Z" transform="translate(-859.541 -503.013)" fill="#8dcfff"/>
        <path id="Path_602" data-name="Path 602" d="M867.782,521.454a9.04,9.04,0,0,1-3.589-3.674c-.426-.875-.5-2.71.315-3.1s2.012.405,2.627,1.682A9.051,9.051,0,0,1,867.782,521.454Z" transform="translate(-859.097 -503.734)" fill="#8dcfff"/>
        <path id="Path_603" data-name="Path 603" d="M861.679,528.661a6.036,6.036,0,0,1-3.091-2.633c-.325-.671-.221-2.147.591-2.539a1.888,1.888,0,0,1,2.353,1.115A6.048,6.048,0,0,1,861.679,528.661Z" transform="translate(-858.417 -504.827)" fill="#8dcfff"/>
        <path id="Path_604" data-name="Path 604" d="M862.447,529.46a7.274,7.274,0,0,1,4-1.209c.791.029,2.133.684,2.1,1.433s-1.054,1.316-2.2,1.274A7.268,7.268,0,0,1,862.447,529.46Z" transform="translate(-858.919 -505.436)" fill="#8dcfff"/>
      </g>
      <g id="Group_331" data-name="Group 331" transform="translate(0 6.269)">
        <path id="Path_605" data-name="Path 605" d="M843.709,555.773a2.755,2.755,0,0,0,.9.742l.227-.5-.115.247.116-.246a3.173,3.173,0,0,1-1.5-2.387c-.377-2.046.354-4.8,2.169-8.2,2.493-4.656,6.989-10.376,13.364-17.008,7.4-7.7,9.816-13,11.413-16.5.409-.9.763-1.676,1.121-2.3l-.475-.271c-.371.649-.73,1.436-1.145,2.346-1.579,3.472-3.969,8.717-11.308,16.352-14.19,14.762-16.353,22.131-15.669,25.714A4.343,4.343,0,0,0,843.709,555.773Z" transform="translate(-842.694 -509.352)" fill="#8dcfff"/>
      </g>
    </g>
    <g id="Group_335" data-name="Group 335" transform="translate(601.57 519.817)">
      <g id="Group_333" data-name="Group 333">
        <path id="Path_606" data-name="Path 606" d="M606.813,575.418a9.842,9.842,0,0,0-.816-5.973c-.538-.994-2.3-2.256-3.33-1.7s-1.185,2.272-.4,3.716A9.837,9.837,0,0,0,606.813,575.418Z" transform="translate(-601.595 -567.611)" fill="#8dcfff"/>
        <path id="Path_607" data-name="Path 607" d="M608.925,581.518a8.374,8.374,0,0,0-4.3-2.97c-.949-.227-2.781.2-3.022,1.22s.763,2.127,2.141,2.456A8.367,8.367,0,0,0,608.925,581.518Z" transform="translate(-601.57 -568.965)" fill="#8dcfff"/>
        <path id="Path_608" data-name="Path 608" d="M612.934,587.451a8.371,8.371,0,0,0-5.132-.959c-.958.18-2.454,1.322-2.26,2.348s1.565,1.628,2.957,1.367A8.356,8.356,0,0,0,612.934,587.451Z" transform="translate(-602.063 -569.949)" fill="#8dcfff"/>
        <path id="Path_609" data-name="Path 609" d="M610.118,581.075a9.388,9.388,0,0,0,3.509-3.712c.423-.878.531-2.694-.236-3.063s-1.93.443-2.546,1.718A9.377,9.377,0,0,0,610.118,581.075Z" transform="translate(-602.624 -568.432)" fill="#8dcfff"/>
        <path id="Path_610" data-name="Path 610" d="M613.607,586.874A9.051,9.051,0,0,0,617.2,583.2c.425-.875.5-2.71-.315-3.1s-2.012.4-2.628,1.682A9.054,9.054,0,0,0,613.607,586.874Z" transform="translate(-603.055 -569.153)" fill="#8dcfff"/>
        <path id="Path_611" data-name="Path 611" d="M619.776,594.08a6.041,6.041,0,0,0,3.091-2.633c.324-.672.221-2.148-.591-2.54a1.888,1.888,0,0,0-2.354,1.115A6.052,6.052,0,0,0,619.776,594.08Z" transform="translate(-603.801 -570.246)" fill="#8dcfff"/>
        <path id="Path_612" data-name="Path 612" d="M618.645,594.879a7.265,7.265,0,0,0-4-1.208c-.791.028-2.133.683-2.1,1.432s1.054,1.316,2.2,1.274A7.26,7.26,0,0,0,618.645,594.879Z" transform="translate(-602.937 -570.855)" fill="#8dcfff"/>
      </g>
      <g id="Group_334" data-name="Group 334" transform="translate(4.295 6.269)">
        <path id="Path_613" data-name="Path 613" d="M634.169,621.192a2.776,2.776,0,0,1-.9.743l-.226-.5.115.247-.116-.246a3.176,3.176,0,0,0,1.5-2.387c.377-2.046-.355-4.8-2.17-8.2-2.493-4.655-6.988-10.376-13.364-17.008-7.4-7.7-9.816-13-11.413-16.5-.408-.9-.763-1.676-1.121-2.3l.475-.271c.371.649.73,1.437,1.145,2.346,1.579,3.472,3.968,8.717,11.308,16.352,14.189,14.763,16.353,22.131,15.668,25.714A4.328,4.328,0,0,1,634.169,621.192Z" transform="translate(-606.476 -574.771)" fill="#8dcfff"/>
      </g>
    </g>
    <g id="Group_338" data-name="Group 338" transform="translate(623.612 511.131)">
      <g id="Group_336" data-name="Group 336">
        <path id="Path_614" data-name="Path 614" d="M634.312,566.408a9.844,9.844,0,0,0,2.135-5.637c0-1.129-.941-3.079-2.116-3.081s-2.125,1.43-2.128,3.071A9.835,9.835,0,0,0,634.312,566.408Z" transform="translate(-627.426 -557.69)" fill="#8dcfff"/>
        <path id="Path_615" data-name="Path 615" d="M633.32,572.8a8.372,8.372,0,0,0-2.356-4.66c-.726-.653-2.54-1.15-3.238-.372s-.345,2.233.707,3.18A8.359,8.359,0,0,0,633.32,572.8Z" transform="translate(-626.824 -558.896)" fill="#8dcfff"/>
        <path id="Path_616" data-name="Path 616" d="M633.97,579.978a8.367,8.367,0,0,0-4.051-3.293c-.928-.3-2.788-.011-3.108.982s.6,2.178,1.945,2.614A8.361,8.361,0,0,0,633.97,579.978Z" transform="translate(-626.747 -560.041)" fill="#8dcfff"/>
        <path id="Path_617" data-name="Path 617" d="M634.258,573.056a9.374,9.374,0,0,0,4.855-1.586c.791-.569,1.754-2.113,1.256-2.8s-1.907-.532-3.057.293A9.377,9.377,0,0,0,634.258,573.056Z" transform="translate(-627.682 -559.002)" fill="#8dcfff"/>
        <path id="Path_618" data-name="Path 618" d="M634.557,579.814a9.043,9.043,0,0,0,4.908-1.514c.792-.566,1.731-2.143,1.2-2.876s-1.961-.6-3.112.222A9.059,9.059,0,0,0,634.557,579.814Z" transform="translate(-627.719 -559.838)" fill="#8dcfff"/>
        <path id="Path_619" data-name="Path 619" d="M636.665,589.04a6.035,6.035,0,0,0,3.972-.837c.607-.436,1.22-1.781.694-2.513a1.887,1.887,0,0,0-2.6-.145A6.042,6.042,0,0,0,636.665,589.04Z" transform="translate(-627.982 -561.103)" fill="#8dcfff"/>
        <path id="Path_620" data-name="Path 620" d="M635.5,589.186a7.271,7.271,0,0,0-2.936-2.972c-.708-.353-2.2-.418-2.533.254s.3,1.66,1.327,2.172A7.273,7.273,0,0,0,635.5,589.186Z" transform="translate(-627.145 -561.209)" fill="#8dcfff"/>
      </g>
      <g id="Group_337" data-name="Group 337" transform="translate(6.373 7.154)">
        <path id="Path_621" data-name="Path 621" d="M636.623,619.644a2.761,2.761,0,0,1-1.142.225l.039-.545-.018.272.016-.272a3.175,3.175,0,0,0,2.457-1.381c1.308-1.618,1.982-4.389,2.008-8.237.032-5.281-1.185-12.454-3.618-21.325-2.827-10.3-2.416-16.109-2.145-19.952.071-.985.13-1.837.115-2.558l.547-.01c.016.747-.045,1.61-.115,2.608-.27,3.8-.677,9.553,2.125,19.767,5.417,19.747,3.8,27.255,1.485,30.075A4.326,4.326,0,0,1,636.623,619.644Z" transform="translate(-634.026 -565.861)" fill="#8dcfff"/>
      </g>
    </g>
    <path id="Path_622" data-name="Path 622" d="M768.651,323.715a22,22,0,1,1-21.995-22A21.9,21.9,0,0,1,768.651,323.715Z" transform="translate(-15.325 -14.687)" fill="#ffc7cb"/>
    <path id="Path_623" data-name="Path 623" d="M755.793,313.284a7.006,7.006,0,0,0-14.012,0c0,3.869,3.137,8.73,7.007,8.73S755.793,317.152,755.793,313.284Z" transform="translate(-17.458 -15.256)" fill="#fff"/>
    <path id="Path_624" data-name="Path 624" d="M764.212,341.1a22,22,0,0,1-33.645,0c2.368-7.909,9-13.607,16.825-13.607S761.845,333.19,764.212,341.1Z" transform="translate(-16.061 -17.897)" fill="#fff"/>
    <path id="Path_625" data-name="Path 625" d="M790.9,344.759H962.6a3.953,3.953,0,0,0,3.953-3.953V306.935a3.952,3.952,0,0,0-3.953-3.952H807.04a3.953,3.953,0,0,0-3.953,3.952v23.292l-13.01,12.49A1.186,1.186,0,0,0,790.9,344.759Z" transform="translate(-23.425 -14.845)" fill="#ffc7cb"/>
    <g id="Group_339" data-name="Group 339" transform="translate(790.68 280.539)">
      <path id="Path_626" data-name="Path 626" d="M825.83,294.486l2.1,4.645a.307.307,0,0,0,.248.18l5.067.561a.31.31,0,0,1,.174.538l-3.769,3.433a.309.309,0,0,0-.1.292l1.032,4.993a.31.31,0,0,1-.457.332l-4.429-2.525a.309.309,0,0,0-.306,0l-4.43,2.525a.31.31,0,0,1-.457-.332l1.032-4.993a.306.306,0,0,0-.095-.292l-3.77-3.433a.31.31,0,0,1,.175-.538l5.067-.561a.307.307,0,0,0,.248-.18l2.1-4.645A.31.31,0,0,1,825.83,294.486Z" transform="translate(-817.574 -294.304)" fill="#ed1c24"/>
      <path id="Path_627" data-name="Path 627" d="M852.547,294.486l2.1,4.645a.31.31,0,0,0,.249.18l5.067.561a.31.31,0,0,1,.174.538l-3.77,3.433a.31.31,0,0,0-.095.292l1.032,4.993a.31.31,0,0,1-.457.332l-4.429-2.525a.31.31,0,0,0-.307,0l-4.429,2.525a.31.31,0,0,1-.457-.332l1.032-4.993a.31.31,0,0,0-.094-.292l-3.77-3.433a.31.31,0,0,1,.174-.538l5.067-.561a.309.309,0,0,0,.249-.18l2.1-4.645A.31.31,0,0,1,852.547,294.486Z" transform="translate(-820.901 -294.304)" fill="#ed1c24"/>
      <path id="Path_628" data-name="Path 628" d="M879.264,294.486l2.1,4.645a.309.309,0,0,0,.249.18l5.067.561a.31.31,0,0,1,.174.538l-3.77,3.433a.31.31,0,0,0-.095.292l1.032,4.993a.31.31,0,0,1-.457.332l-4.429-2.525a.31.31,0,0,0-.307,0L874.4,309.46a.31.31,0,0,1-.457-.332l1.032-4.993a.31.31,0,0,0-.095-.292l-3.77-3.433a.31.31,0,0,1,.174-.538l5.067-.561a.31.31,0,0,0,.249-.18l2.1-4.645A.31.31,0,0,1,879.264,294.486Z" transform="translate(-824.227 -294.304)" fill="#ed1c24"/>
      <path id="Path_629" data-name="Path 629" d="M905.981,294.486l2.1,4.645a.308.308,0,0,0,.249.18l5.066.561a.31.31,0,0,1,.175.538l-3.77,3.433a.308.308,0,0,0-.095.292l1.032,4.993a.31.31,0,0,1-.457.332l-4.429-2.525a.31.31,0,0,0-.307,0l-4.429,2.525a.31.31,0,0,1-.457-.332l1.032-4.993a.309.309,0,0,0-.1-.292l-3.769-3.433a.31.31,0,0,1,.174-.538l5.067-.561a.31.31,0,0,0,.249-.18l2.1-4.645A.31.31,0,0,1,905.981,294.486Z" transform="translate(-827.554 -294.304)" fill="#ed1c24"/>
      <path id="Path_630" data-name="Path 630" d="M932.7,294.486l2.1,4.645a.307.307,0,0,0,.248.18l5.067.561a.31.31,0,0,1,.175.538l-3.77,3.433a.309.309,0,0,0-.1.292l1.032,4.993a.309.309,0,0,1-.456.332l-4.43-2.525a.309.309,0,0,0-.306,0l-4.43,2.525a.309.309,0,0,1-.456-.332l1.032-4.993a.308.308,0,0,0-.1-.292l-3.77-3.433a.31.31,0,0,1,.175-.538l5.067-.561a.307.307,0,0,0,.248-.18l2.1-4.645A.31.31,0,0,1,932.7,294.486Z" transform="translate(-830.88 -294.304)" fill="#ed1c24"/>
    </g>
    <rect id="Rectangle_172" data-name="Rectangle 172" width="127.125" height="4.44" rx="2.22" transform="translate(790.68 303.178)" fill="#0c124c"/>
    <rect id="Rectangle_173" data-name="Rectangle 173" width="140.405" height="4.44" rx="2.22" transform="translate(790.68 315.06)" fill="#0c124c"/>
    <path id="Path_631" data-name="Path 631" d="M768.651,392.87a22,22,0,1,1-21.995-22A21.9,21.9,0,0,1,768.651,392.87Z" transform="translate(-15.325 -23.298)" fill="#ffc7cb"/>
    <path id="Path_632" data-name="Path 632" d="M755.793,382.438a7.006,7.006,0,0,0-14.012,0c0,3.87,3.137,8.731,7.007,8.731S755.793,386.307,755.793,382.438Z" transform="translate(-17.458 -23.866)" fill="#fff"/>
    <path id="Path_633" data-name="Path 633" d="M764.212,410.254a22,22,0,0,1-33.645,0c2.368-7.91,9-13.607,16.825-13.607S761.845,402.344,764.212,410.254Z" transform="translate(-16.061 -26.507)" fill="#fff"/>
    <path id="Path_634" data-name="Path 634" d="M790.9,413.913H962.6a3.952,3.952,0,0,0,3.953-3.952V376.09a3.953,3.953,0,0,0-3.953-3.953H807.04a3.953,3.953,0,0,0-3.953,3.953v23.292l-13.01,12.49A1.186,1.186,0,0,0,790.9,413.913Z" transform="translate(-23.425 -23.456)" fill="#ffc7cb"/>
    <g id="Group_340" data-name="Group 340" transform="translate(790.68 341.083)">
      <path id="Path_635" data-name="Path 635" d="M825.83,363.64l2.1,4.646a.309.309,0,0,0,.248.18l5.067.561a.309.309,0,0,1,.174.537L829.651,373a.31.31,0,0,0-.1.292l1.032,4.993a.31.31,0,0,1-.457.332L825.7,376.09a.309.309,0,0,0-.306,0l-4.43,2.524a.31.31,0,0,1-.457-.332l1.032-4.993a.307.307,0,0,0-.095-.292l-3.77-3.433a.31.31,0,0,1,.175-.537l5.067-.561a.309.309,0,0,0,.248-.18l2.1-4.646A.31.31,0,0,1,825.83,363.64Z" transform="translate(-817.574 -363.458)" fill="#ed1c24"/>
      <path id="Path_636" data-name="Path 636" d="M852.547,363.64l2.1,4.646a.312.312,0,0,0,.249.18l5.067.561a.309.309,0,0,1,.174.537L856.367,373a.311.311,0,0,0-.095.292l1.032,4.993a.31.31,0,0,1-.457.332l-4.429-2.524a.31.31,0,0,0-.307,0l-4.429,2.524a.31.31,0,0,1-.457-.332l1.032-4.993a.311.311,0,0,0-.094-.292l-3.77-3.433a.31.31,0,0,1,.174-.537l5.067-.561a.31.31,0,0,0,.249-.18l2.1-4.646A.31.31,0,0,1,852.547,363.64Z" transform="translate(-820.901 -363.458)" fill="#ed1c24"/>
      <path id="Path_637" data-name="Path 637" d="M879.264,363.64l2.1,4.646a.31.31,0,0,0,.249.18l5.067.561a.31.31,0,0,1,.174.537L883.084,373a.311.311,0,0,0-.095.292l1.032,4.993a.31.31,0,0,1-.457.332l-4.429-2.524a.31.31,0,0,0-.307,0l-4.429,2.524a.31.31,0,0,1-.457-.332l1.032-4.993a.311.311,0,0,0-.095-.292l-3.77-3.433a.309.309,0,0,1,.174-.537l5.067-.561a.312.312,0,0,0,.249-.18l2.1-4.646A.31.31,0,0,1,879.264,363.64Z" transform="translate(-824.227 -363.458)" fill="#ed1c24"/>
      <path id="Path_638" data-name="Path 638" d="M905.981,363.64l2.1,4.646a.309.309,0,0,0,.249.18l5.066.561a.31.31,0,0,1,.175.537L909.8,373a.309.309,0,0,0-.095.292l1.032,4.993a.31.31,0,0,1-.457.332l-4.429-2.524a.31.31,0,0,0-.307,0l-4.429,2.524a.31.31,0,0,1-.457-.332l1.032-4.993a.309.309,0,0,0-.1-.292l-3.769-3.433a.309.309,0,0,1,.174-.537l5.067-.561a.312.312,0,0,0,.249-.18l2.1-4.646A.31.31,0,0,1,905.981,363.64Z" transform="translate(-827.554 -363.458)" fill="#ed1c24"/>
    </g>
    <rect id="Rectangle_174" data-name="Rectangle 174" width="127.125" height="4.44" rx="2.22" transform="translate(790.68 363.722)" fill="#0c124c"/>
    <rect id="Rectangle_175" data-name="Rectangle 175" width="140.405" height="4.44" rx="2.22" transform="translate(790.68 375.604)" fill="#0c124c"/>
    <path id="Path_639" data-name="Path 639" d="M768.651,462.024a22,22,0,1,1-21.995-22A21.9,21.9,0,0,1,768.651,462.024Z" transform="translate(-15.325 -31.908)" fill="#ffc7cb"/>
    <path id="Path_640" data-name="Path 640" d="M755.793,451.593a7.006,7.006,0,0,0-14.012,0c0,3.869,3.137,8.73,7.007,8.73S755.793,455.461,755.793,451.593Z" transform="translate(-17.458 -32.476)" fill="#fff"/>
    <path id="Path_641" data-name="Path 641" d="M764.212,479.408a22,22,0,0,1-33.645,0c2.368-7.909,9-13.607,16.825-13.607S761.845,471.5,764.212,479.408Z" transform="translate(-16.061 -35.118)" fill="#fff"/>
    <path id="Path_642" data-name="Path 642" d="M790.9,483.068H962.6a3.953,3.953,0,0,0,3.953-3.953V445.244a3.952,3.952,0,0,0-3.953-3.952H807.04a3.953,3.953,0,0,0-3.953,3.952v23.293l-13.01,12.489A1.186,1.186,0,0,0,790.9,483.068Z" transform="translate(-23.425 -32.066)" fill="#ffc7cb"/>
    <g id="Group_341" data-name="Group 341" transform="translate(790.68 401.627)">
      <path id="Path_643" data-name="Path 643" d="M825.83,432.8l2.1,4.645a.307.307,0,0,0,.248.18l5.067.561a.31.31,0,0,1,.174.538l-3.769,3.433a.31.31,0,0,0-.1.292l1.032,4.993a.31.31,0,0,1-.457.332l-4.429-2.525a.309.309,0,0,0-.306,0l-4.43,2.525a.31.31,0,0,1-.457-.332l1.032-4.993a.307.307,0,0,0-.095-.292l-3.77-3.433a.31.31,0,0,1,.175-.538l5.067-.561a.307.307,0,0,0,.248-.18l2.1-4.645A.31.31,0,0,1,825.83,432.8Z" transform="translate(-817.574 -432.612)" fill="#ed1c24"/>
      <path id="Path_644" data-name="Path 644" d="M852.547,432.8l2.1,4.645a.31.31,0,0,0,.249.18l5.067.561a.31.31,0,0,1,.174.538l-3.77,3.433a.311.311,0,0,0-.095.292l1.032,4.993a.31.31,0,0,1-.457.332l-4.429-2.525a.31.31,0,0,0-.307,0l-4.429,2.525a.31.31,0,0,1-.457-.332l1.032-4.993a.311.311,0,0,0-.094-.292l-3.77-3.433a.31.31,0,0,1,.174-.538l5.067-.561a.309.309,0,0,0,.249-.18l2.1-4.645A.31.31,0,0,1,852.547,432.8Z" transform="translate(-820.901 -432.612)" fill="#ed1c24"/>
    </g>
    <path id="Path_645" data-name="Path 645" d="M690.079,191.414l4.363,9.654a.642.642,0,0,0,.516.375l10.53,1.166a.644.644,0,0,1,.362,1.116l-7.834,7.133a.643.643,0,0,0-.2.607l2.145,10.375a.644.644,0,0,1-.95.69l-9.2-5.246a.642.642,0,0,0-.637,0l-9.2,5.246a.644.644,0,0,1-.95-.69l2.145-10.375a.641.641,0,0,0-.2-.607l-7.833-7.133a.644.644,0,0,1,.362-1.116l10.53-1.166a.642.642,0,0,0,.516-.375l4.363-9.654A.644.644,0,0,1,690.079,191.414Z" transform="translate(-8.884 -0.907)" fill="#ed1c24" opacity="0.1"/>
    <path id="Path_646" data-name="Path 646" d="M887.981,184.019l3.062,6.776a.454.454,0,0,0,.362.263l7.391.819a.452.452,0,0,1,.255.784l-5.5,5.006a.452.452,0,0,0-.138.426l1.5,7.281a.452.452,0,0,1-.666.484l-6.46-3.681a.45.45,0,0,0-.448,0l-6.46,3.681a.452.452,0,0,1-.666-.484l1.506-7.281a.457.457,0,0,0-.138-.426l-5.5-5.006a.452.452,0,0,1,.255-.784l7.391-.819a.452.452,0,0,0,.362-.263l3.062-6.776A.452.452,0,0,1,887.981,184.019Z" transform="translate(-34.162 0)" fill="#ed1c24" opacity="0.1"/>
    <rect id="Rectangle_176" data-name="Rectangle 176" width="127.125" height="4.44" rx="2.22" transform="translate(790.68 424.266)" fill="#0c124c"/>
    <rect id="Rectangle_177" data-name="Rectangle 177" width="140.405" height="4.44" rx="2.22" transform="translate(790.68 436.148)" fill="#0c124c"/>
    <path id="Path_647" data-name="Path 647" d="M647.565,612.82l2.626-18.385h13.132l-4.377,20.136Z" transform="translate(-5.727 -51.134)" fill="#f7b68b"/>
    <path id="Path_648" data-name="Path 648" d="M688.441,593.31l-.875,21.887h11.381l2.627-22.763Z" transform="translate(-10.707 -50.885)" fill="#f7b68b"/>
    <path id="Path_649" data-name="Path 649" d="M707.6,505.332l-10.3,72.744H680.4l2.548-71.72-1.6-40.745h0v-.061l-1.55,23.13-.875,13.57-13.544,75.826H647.985l8.247-74.819-3.257-64.532h53.834Z" transform="translate(-5.779 -31.746)" fill="#8bbdc8"/>
    <path id="Path_650" data-name="Path 650" d="M641.219,445.605l1.5,7.774s3.9,2,4.859,10.453c0,0-3.625.411-4.71-3.747,0,0-2.627,8.86-.228,14.087,0,0-.928,2.556-2.276,1.48,0,0-.928,2.556-2.95.946,0,0-3.344,2.828-3.239-7,0,0-1.462,3.222-2.416.271A43.094,43.094,0,0,1,636,453.484l-1.366-6.566Z" transform="translate(-3.758 -32.603)" fill="#f7b68b"/>
    <path id="Path_651" data-name="Path 651" d="M689.06,342.13l-1.024-9.245s9.552,1.024,8.518-14.384c0,0-.306-11.3-2.355-14.384,0,0-24.654-6.128-21.572,12.327,0,0-.928,4.159,3.414,7.958l-.875,16.634Z" transform="translate(-8.814 -14.865)" fill="#f7b68b"/>
    <path id="Path_652" data-name="Path 652" d="M687.645,608.381s-4.124,7.976-1.374,16.232l34.4.4a13.01,13.01,0,0,0-5.507-9.63,155.686,155.686,0,0,0-15.137-7.38S693.143,618.012,687.645,608.381Z" transform="translate(-10.428 -52.823)" fill="#212957"/>
    <path id="Path_653" data-name="Path 653" d="M648.435,607.005s-2.749,9.63-1.375,17.886h22.01s0-6.881-4.124-11c0,0-4.123-2.749-4.123-5.507C660.814,608.38,652.567,613.886,648.435,607.005Z" transform="translate(-5.616 -52.699)" fill="#212957"/>
    <path id="Path_654" data-name="Path 654" d="M768.565,341.633l9.63-5.358,6.925-7.083,14.008-1.812a4.511,4.511,0,0,1,1.628.088l4.29,1.024a.875.875,0,0,1,.289,1.558c-1.663.954-4.377,2.1-7,1.593l-3.5.875s2.057,7.766-2.521,9.63a23.451,23.451,0,0,1-7.879,1.839l-9.578,4.482Z" transform="translate(-20.792 -17.878)" fill="#f7b68b"/>
    <path id="Path_655" data-name="Path 655" d="M760.6,351.941l-26.764,23.174a11.382,11.382,0,0,1-10.506,2.355L701.063,371.2l3.87,59.533.131,2.04H650.057c-.123,0-.228-.21-.306-.6-1.1-5.507,1.987-47.276,2.627-55.594,0-.517.07-.875.088-1.147s0-.271,0-.271l-.236.814-.228.788-7.3,24.986v36.368l-14.122.079-3.3-41.148a17.924,17.924,0,0,1,.946-7.354l11.837-33.952a11.591,11.591,0,0,1,7.722-7.205l21.117-6.286h14.84l20.828,4.439,21.887,10.506,27.14-15.759Z" transform="translate(-3.193 -19.633)" fill="#ed1c24"/>
    <path id="Path_656" data-name="Path 656" d="M697.9,297.83c-10.287-8.676-19.042.954-19.042.954-1.138-1.138-8.755,0-11.084,6.032-4.2,10.874,7.31,21.362,7.31,21.362a7.642,7.642,0,0,0,7.7-1.751l1.891-6.75c-3.555-5.691,0-7.337,1.751-6.645,1.121.438,1.7,2.022,2.075,3.5l2.626,1.751v-6.128C695.8,308.6,705.49,304.221,697.9,297.83Z" transform="translate(-8.128 -13.752)" fill="#11090a"/>
    <path id="Path_657" data-name="Path 657" d="M714.688,434.453l-9.123-63.018,5.253,3.5Z" transform="translate(-12.948 -23.368)" fill="#d81322"/>
    <path id="Path_658" data-name="Path 658" d="M655.763,380.865l-.228.788.026-.289Z" transform="translate(-6.719 -24.542)" fill="#e9aac3"/>
    <path id="Path_659" data-name="Path 659" d="M658.708,371.435l-5.787,64.454c-1.1-5.507,1.987-47.276,2.627-55.594,0-.517.07-.875.088-1.147Z" transform="translate(-6.364 -23.368)" fill="#d81322"/>
    <path id="Path_660" data-name="Path 660" d="M684.856,467.755l-1.55,23.13-6.741-34.451Z" transform="translate(-9.338 -33.952)" fill="#4ba2b5"/>
    <g id="Group_344" data-name="Group 344" transform="translate(608.383 264.429)" opacity="0.1">
      <g id="Group_342" data-name="Group 342" transform="translate(7.458 0)">
        <path id="Path_661" data-name="Path 661" d="M639.5,283.879l.563,9.3a8.4,8.4,0,0,1-6.372,8.7l-8.373,2.078a3.628,3.628,0,0,1-4.405-2.634l-2.932-11.817a3.625,3.625,0,0,1,.7-3.16c.843-3.245,2.019-6.212,2.529-8.777.143-1.254,4.022-3.148,5.371.269a13.9,13.9,0,0,1-.578,5.95l9.971-2.474A2.833,2.833,0,0,1,639.5,283.879Z" transform="translate(-617.871 -275.902)" fill="#adadea"/>
      </g>
      <g id="Group_343" data-name="Group 343" transform="translate(0 12.258)">
        <rect id="Rectangle_178" data-name="Rectangle 178" width="7.465" height="14.93" rx="3.732" transform="translate(0 1.798) rotate(-13.935)" fill="#393768"/>
      </g>
    </g>
    <g id="Group_347" data-name="Group 347" transform="translate(755.847 215.03)" opacity="0.1">
      <g id="Group_345" data-name="Group 345" transform="translate(7.458)">
        <path id="Path_662" data-name="Path 662" d="M807.935,227.455l.563,9.3a8.406,8.406,0,0,1-6.372,8.7l-8.373,2.078a3.628,3.628,0,0,1-4.405-2.634l-2.932-11.817a3.622,3.622,0,0,1,.7-3.16c.844-3.245,2.019-6.212,2.53-8.777.143-1.254,4.022-3.148,5.371.269a13.894,13.894,0,0,1-.579,5.95l9.972-2.474A2.833,2.833,0,0,1,807.935,227.455Z" transform="translate(-786.306 -219.478)" fill="#adadea"/>
      </g>
      <g id="Group_346" data-name="Group 346" transform="translate(0 12.258)">
        <rect id="Rectangle_179" data-name="Rectangle 179" width="7.465" height="14.93" rx="3.732" transform="translate(0 1.798) rotate(-13.935)" fill="#393768"/>
      </g>
    </g>
    <g id="Group_350" data-name="Group 350" transform="translate(903.626 222.07)" opacity="0.1">
      <g id="Group_348" data-name="Group 348">
        <path id="Path_663" data-name="Path 663" d="M946.634,239.141l1.727,9.154a8.4,8.4,0,0,0,8.3,6.88l8.628-.032a3.628,3.628,0,0,0,3.627-3.632l-.045-12.175a3.626,3.626,0,0,0-1.449-2.894c-1.611-2.939-3.476-5.53-4.6-7.891-.445-1.182-4.669-2.071-5.143,1.572a13.9,13.9,0,0,0,2.015,5.629l-10.274.038A2.833,2.833,0,0,0,946.634,239.141Z" transform="translate(-946.583 -227.52)" fill="#adadea"/>
      </g>
      <g id="Group_349" data-name="Group 349" transform="translate(22.276 10.407)">
        <rect id="Rectangle_180" data-name="Rectangle 180" width="7.465" height="14.93" rx="3.732" transform="translate(7.52 14.93) rotate(179.788)" fill="#393768"/>
      </g>
    </g>
  </g>
</svg>
