<svg xmlns="http://www.w3.org/2000/svg" xmlns:xlink="http://www.w3.org/1999/xlink" width="355.971" height="395.866" viewBox="0 0 355.971 395.866">
  <defs>
    <clipPath id="clip-path">
      <rect width="355.971" height="395.866" fill="none"/>
    </clipPath>
    <linearGradient id="linear-gradient" x1="0.093" y1="26.37" x2="1.097" y2="26.37" gradientUnits="objectBoundingBox">
      <stop offset="0" stop-color="#2b0246"/>
      <stop offset="1" stop-color="#6a4586"/>
    </linearGradient>
    <clipPath id="clip-path-2">
      <path id="Path_778" data-name="Path 778" d="M1128.952,479.068l2.957-.68,7.476,32.508-2.952.7c-7.861,1.808-15.907-4.008-17.973-12.991S1121.091,480.876,1128.952,479.068Z" transform="translate(-1117.972 -478.388)" fill="none"/>
    </clipPath>
    <clipPath id="clip-path-3">
      <path id="Path_785" data-name="Path 785" d="M1151.636,255.268l2.806-.646,7.1,30.851-2.8.666c-7.46,1.715-15.1-3.805-17.058-12.33S1144.176,256.983,1151.636,255.268Z" transform="translate(-1141.216 -254.622)" fill="none"/>
    </clipPath>
    <clipPath id="clip-path-5">
      <path id="Path_804" data-name="Path 804" d="M1454.491,278.38l-1.87-3.309-30.057,17.144,1.849,3.321c2.711,5.016,11.642,5.241,19.948.5S1457.2,283.4,1454.491,278.38Z" transform="translate(-1422.565 -275.071)" fill="none"/>
    </clipPath>
  </defs>
  <g id="Repeat_Grid_4" data-name="Repeat Grid 4" clip-path="url(#clip-path)">
    <g id="Group_400" data-name="Group 400" transform="translate(-1079.294 -206.124)">
      <path id="Path_718" data-name="Path 718" d="M1257.428,588.2c-14.039-9.571-2.53-12.64,11.011-12.31-6.254-6.852-1.9-13.218,14.614-20.117,7.411-3.1,16.167-1.089,24.65,3.277,7.318-13.067,16.779-21.919,26.992-16.821,8.444,4.218,14.617,9.237,18.363,14.54,2.726-1.042,5.653-2.018,8.78-2.909,6.806-1.942,11.7-.25,15.1,3.6,13.52-7.628,27.049-12,34.628-6.412,13.179,9.721,14.612,17.788,5.355,25.569,13.51.715,23.481,5.382,5.323,15.81,16.147-1.465,27.539.454,20.226,10.182-16.308,21.686-88.538,24.034-141.873,13-33.87-2.479-61.839-9.367-66.774-20.617C1230.187,586.711,1242.092,585.939,1257.428,588.2Z" transform="translate(-14.365 -26.76)" fill="#c5e1f9"/>
      <path id="Path_719" data-name="Path 719" d="M1082.555,627.034c-2.973-6.047.668-11.464,14.653-14.878a84.174,84.174,0,0,1,41.9.942c-28.406-17.456-61.546-42.268-31.41-46.648,9.4-1.365,23.878,4.2,40,13.18-18.025-19.109-27.964-35.032-17.113-38.553,10.075-3.276,30.721,12,52.713,32.516-12.558-17.451-19.851-32.844-14.284-40.508,4.55-6.258,14.339.255,25.62,12.621-.551-11.289,2.9-18.278,10.867-17.259,7.489.957,13.609,13.781,18.009,29.3,7.071-24.687,25.966-40.432,45.128-33.884,22.508,7.691,4.719,66.907-5.21,95.125Z" transform="translate(-0.214 -25.044)" fill="#d4edff"/>
      <g id="Group_368" data-name="Group 368" transform="translate(1297.907 479.032)">
        <g id="Group_366" data-name="Group 366" transform="translate(14.255)">
          <path id="Path_720" data-name="Path 720" d="M1352.138,510.276a10.188,10.188,0,0,1,.846-6.185c.557-1.029,2.379-2.336,3.449-1.757s1.227,2.352.417,3.847A10.185,10.185,0,0,1,1352.138,510.276Z" transform="translate(-1337.62 -502.192)" fill="#8dcfff"/>
          <path id="Path_721" data-name="Path 721" d="M1349.714,516.207a8.672,8.672,0,0,1,4.449-3.076c.983-.235,2.879.211,3.13,1.264s-.792,2.2-2.218,2.543A8.662,8.662,0,0,1,1349.714,516.207Z" transform="translate(-1337.408 -503.207)" fill="#8dcfff"/>
          <path id="Path_722" data-name="Path 722" d="M1345.7,522.07a8.662,8.662,0,0,1,5.315-.993c.992.187,2.542,1.369,2.341,2.431s-1.621,1.686-3.063,1.417A8.659,8.659,0,0,1,1345.7,522.07Z" transform="translate(-1337.033 -503.945)" fill="#8dcfff"/>
          <path id="Path_723" data-name="Path 723" d="M1349.146,515.9a9.708,9.708,0,0,1-3.634-3.843c-.439-.909-.551-2.791.244-3.172s2,.459,2.637,1.779A9.708,9.708,0,0,1,1349.146,515.9Z" transform="translate(-1336.984 -502.808)" fill="#8dcfff"/>
          <path id="Path_724" data-name="Path 724" d="M1345.645,521.7a9.361,9.361,0,0,1-3.716-3.8c-.442-.907-.515-2.806.326-3.213s2.083.42,2.721,1.742A9.373,9.373,0,0,1,1345.645,521.7Z" transform="translate(-1336.651 -503.348)" fill="#8dcfff"/>
          <path id="Path_725" data-name="Path 725" d="M1339.518,528.85a6.249,6.249,0,0,1-3.2-2.727c-.336-.7-.229-2.223.612-2.629a1.955,1.955,0,0,1,2.437,1.154A6.26,6.26,0,0,1,1339.518,528.85Z" transform="translate(-1336.141 -504.168)" fill="#8dcfff"/>
          <path id="Path_726" data-name="Path 726" d="M1340.171,529.5a7.53,7.53,0,0,1,4.141-1.252c.819.03,2.208.708,2.179,1.484s-1.092,1.363-2.282,1.319A7.526,7.526,0,0,1,1340.171,529.5Z" transform="translate(-1336.517 -504.624)" fill="#8dcfff"/>
        </g>
        <g id="Group_367" data-name="Group 367" transform="translate(0 6.492)">
          <path id="Path_727" data-name="Path 727" d="M1321.469,557.425a2.854,2.854,0,0,0,.928.769l.235-.514-.12.256.12-.255a3.286,3.286,0,0,1-1.551-2.471c-.391-2.119.366-4.973,2.247-8.487,2.582-4.822,7.237-10.745,13.839-17.613,7.667-7.976,10.165-13.462,11.819-17.092.423-.931.791-1.735,1.161-2.384l-.492-.281c-.385.672-.756,1.487-1.186,2.43-1.637,3.6-4.11,9.027-11.71,16.934-14.695,15.287-16.935,22.918-16.226,26.629A4.486,4.486,0,0,0,1321.469,557.425Z" transform="translate(-1320.418 -509.352)" fill="#8dcfff"/>
        </g>
      </g>
      <g id="Group_371" data-name="Group 371" transform="translate(1079.294 538.344)">
        <g id="Group_369" data-name="Group 369" transform="translate(0 0)">
          <path id="Path_728" data-name="Path 728" d="M1084.716,575.7a10.19,10.19,0,0,0-.846-6.185c-.557-1.029-2.379-2.336-3.449-1.757s-1.227,2.353-.417,3.848A10.187,10.187,0,0,0,1084.716,575.7Z" transform="translate(-1079.312 -567.611)" fill="#8dcfff"/>
          <path id="Path_729" data-name="Path 729" d="M1086.91,581.626a8.667,8.667,0,0,0-4.449-3.075c-.983-.235-2.879.21-3.13,1.263s.792,2.2,2.218,2.543A8.661,8.661,0,0,0,1086.91,581.626Z" transform="translate(-1079.294 -568.626)" fill="#8dcfff"/>
          <path id="Path_730" data-name="Path 730" d="M1090.922,587.489a8.669,8.669,0,0,0-5.315-.993c-.992.187-2.542,1.369-2.341,2.432s1.621,1.686,3.063,1.416A8.653,8.653,0,0,0,1090.922,587.489Z" transform="translate(-1079.663 -569.364)" fill="#8dcfff"/>
          <path id="Path_731" data-name="Path 731" d="M1087.844,581.319a9.715,9.715,0,0,0,3.634-3.844c.439-.909.551-2.79-.244-3.172s-2,.459-2.636,1.779A9.706,9.706,0,0,0,1087.844,581.319Z" transform="translate(-1080.084 -568.227)" fill="#8dcfff"/>
          <path id="Path_732" data-name="Path 732" d="M1091.334,587.119a9.366,9.366,0,0,0,3.716-3.805c.442-.907.515-2.806-.326-3.212s-2.084.419-2.721,1.742A9.373,9.373,0,0,0,1091.334,587.119Z" transform="translate(-1080.406 -568.767)" fill="#8dcfff"/>
          <path id="Path_733" data-name="Path 733" d="M1097.511,594.269a6.252,6.252,0,0,0,3.2-2.726c.336-.7.229-2.224-.612-2.63a1.955,1.955,0,0,0-2.437,1.154A6.26,6.26,0,0,0,1097.511,594.269Z" transform="translate(-1080.966 -569.587)" fill="#8dcfff"/>
          <path id="Path_734" data-name="Path 734" d="M1096.586,594.922a7.525,7.525,0,0,0-4.142-1.251c-.819.029-2.208.707-2.179,1.483s1.092,1.363,2.282,1.319A7.518,7.518,0,0,0,1096.586,594.922Z" transform="translate(-1080.318 -570.043)" fill="#8dcfff"/>
        </g>
        <g id="Group_370" data-name="Group 370" transform="translate(4.447 6.492)">
          <path id="Path_735" data-name="Path 735" d="M1112.879,622.844a2.887,2.887,0,0,1-.929.77l-.235-.515.12.256-.121-.255a3.287,3.287,0,0,0,1.551-2.471c.391-2.119-.366-4.973-2.247-8.487-2.582-4.821-7.237-10.746-13.839-17.613-7.667-7.975-10.165-13.462-11.819-17.092-.422-.931-.791-1.735-1.161-2.384l.492-.281c.385.672.756,1.488,1.186,2.43,1.636,3.6,4.11,9.027,11.71,16.934,14.695,15.288,16.936,22.918,16.226,26.629A4.493,4.493,0,0,1,1112.879,622.844Z" transform="translate(-1084.199 -574.771)" fill="#8dcfff"/>
        </g>
      </g>
      <g id="Group_374" data-name="Group 374" transform="translate(1102.12 529.349)">
        <g id="Group_372" data-name="Group 372" transform="translate(0)">
          <path id="Path_736" data-name="Path 736" d="M1112.111,566.718a10.189,10.189,0,0,0,2.21-5.838c0-1.17-.974-3.189-2.19-3.19s-2.2,1.481-2.2,3.18A10.186,10.186,0,0,0,1112.111,566.718Z" transform="translate(-1104.98 -557.69)" fill="#8dcfff"/>
          <path id="Path_737" data-name="Path 737" d="M1111.256,573a8.67,8.67,0,0,0-2.44-4.826c-.752-.676-2.63-1.19-3.354-.385s-.356,2.313.734,3.293A8.657,8.657,0,0,0,1111.256,573Z" transform="translate(-1104.528 -558.594)" fill="#8dcfff"/>
          <path id="Path_738" data-name="Path 738" d="M1111.951,580.1a8.663,8.663,0,0,0-4.2-3.41c-.96-.31-2.887-.012-3.218,1.017s.619,2.256,2.015,2.707A8.658,8.658,0,0,0,1111.951,580.1Z" transform="translate(-1104.47 -559.453)" fill="#8dcfff"/>
          <path id="Path_739" data-name="Path 739" d="M1111.982,573.227a9.706,9.706,0,0,0,5.028-1.642c.82-.589,1.817-2.188,1.3-2.9s-1.976-.551-3.167.3A9.713,9.713,0,0,0,1111.982,573.227Z" transform="translate(-1105.172 -558.674)" fill="#8dcfff"/>
          <path id="Path_740" data-name="Path 740" d="M1112.281,579.988a9.365,9.365,0,0,0,5.083-1.568c.82-.586,1.792-2.219,1.247-2.978s-2.031-.626-3.223.23A9.375,9.375,0,0,0,1112.281,579.988Z" transform="translate(-1105.2 -559.301)" fill="#8dcfff"/>
          <path id="Path_741" data-name="Path 741" d="M1114.389,589.18a6.249,6.249,0,0,0,4.113-.867c.627-.452,1.263-1.844.718-2.6a1.952,1.952,0,0,0-2.692-.15A6.257,6.257,0,0,0,1114.389,589.18Z" transform="translate(-1105.397 -560.249)" fill="#8dcfff"/>
          <path id="Path_742" data-name="Path 742" d="M1113.424,589.3a7.531,7.531,0,0,0-3.04-3.078c-.734-.365-2.278-.432-2.623.263s.308,1.719,1.374,2.249A7.529,7.529,0,0,0,1113.424,589.3Z" transform="translate(-1104.769 -560.329)" fill="#8dcfff"/>
        </g>
        <g id="Group_373" data-name="Group 373" transform="translate(6.599 7.408)">
          <path id="Path_743" data-name="Path 743" d="M1114.439,621.558a2.862,2.862,0,0,1-1.184.233l.04-.565-.017.282.016-.282a3.286,3.286,0,0,0,2.543-1.43c1.355-1.675,2.052-4.545,2.079-8.53.034-5.469-1.226-12.9-3.746-22.084-2.927-10.669-2.5-16.682-2.22-20.661.073-1.02.134-1.9.118-2.649l.567-.011c.017.773-.045,1.667-.118,2.7-.281,3.94-.7,9.893,2.2,20.47,5.609,20.449,3.933,28.225,1.538,31.145A4.481,4.481,0,0,1,1114.439,621.558Z" transform="translate(-1111.749 -565.861)" fill="#8dcfff"/>
        </g>
      </g>
      <rect id="Rectangle_224" data-name="Rectangle 224" width="163.313" height="287.65" rx="22.96" transform="translate(1185.793 286.859)" fill="#ffc7cb"/>
      <rect id="Rectangle_225" data-name="Rectangle 225" width="163.313" height="287.65" rx="22.96" transform="translate(1173.173 301.583)" fill="#fff" stroke="#ed1c24" stroke-miterlimit="10" stroke-width="0.5"/>
      <path id="Path_744" data-name="Path 744" d="M1318.04,349.22h-86.394a9.066,9.066,0,0,0-9.066,9.066v23.482a9.066,9.066,0,0,0,9.066,9.066h72.005l12.43,17.009,1.958-17.009h0a9.066,9.066,0,0,0,9.066-9.066V358.286A9.066,9.066,0,0,0,1318.04,349.22Z" transform="translate(-13.377 -8.878)" fill="#ffc7cb"/>
      <path id="Path_745" data-name="Path 745" d="M1236.679,374.35h80.709a2.337,2.337,0,0,1,2.339,2.335h0a2.337,2.337,0,0,1-2.339,2.335h-80.709a2.337,2.337,0,0,1-2.339-2.335h0A2.337,2.337,0,0,1,1236.679,374.35Z" transform="translate(-14.475 -11.224)" fill="#0c124c"/>
      <path id="Path_746" data-name="Path 746" d="M1236.519,364.51h21.234a2.337,2.337,0,0,1,2.339,2.335h0a2.337,2.337,0,0,1-2.339,2.335h-21.234a2.337,2.337,0,0,1-2.339-2.335h0A2.337,2.337,0,0,1,1236.519,364.51Z" transform="translate(-14.46 -10.306)" fill="#0c124c"/>
      <path id="Path_747" data-name="Path 747" d="M1318.04,488h-86.394a9.066,9.066,0,0,0-9.066,9.066v23.482a9.066,9.066,0,0,0,9.066,9.066h72.005l12.43,17.008,1.958-17.008h0a9.066,9.066,0,0,0,9.066-9.066V497.066A9.066,9.066,0,0,0,1318.04,488Z" transform="translate(-13.377 -21.834)" fill="#ffc7cb"/>
      <path id="Path_748" data-name="Path 748" d="M1236.679,513.14h80.709a2.337,2.337,0,0,1,2.339,2.335h0a2.337,2.337,0,0,1-2.339,2.335h-80.709a2.337,2.337,0,0,1-2.339-2.335h0A2.337,2.337,0,0,1,1236.679,513.14Z" transform="translate(-14.475 -24.181)" fill="#0c124c"/>
      <path id="Path_749" data-name="Path 749" d="M1236.519,503.3h21.234a2.337,2.337,0,0,1,2.339,2.335h0a2.337,2.337,0,0,1-2.339,2.335h-21.234a2.337,2.337,0,0,1-2.339-2.335h0A2.337,2.337,0,0,1,1236.519,503.3Z" transform="translate(-14.46 -23.263)" fill="#0c124c"/>
      <path id="Path_750" data-name="Path 750" d="M1160.376,418.61h86.394a9.066,9.066,0,0,1,9.066,9.066v23.482a9.066,9.066,0,0,1-9.066,9.066h-72.005l-12.43,17.009-1.958-17.009h0a9.066,9.066,0,0,1-9.066-9.066V427.676A9.066,9.066,0,0,1,1160.376,418.61Z" transform="translate(-6.723 -15.356)" fill="#ffc7cb"/>
      <path id="Path_751" data-name="Path 751" d="M1165.409,443.74h80.709a2.337,2.337,0,0,1,2.339,2.335h0a2.337,2.337,0,0,1-2.339,2.335h-80.709a2.337,2.337,0,0,1-2.339-2.335h0A2.337,2.337,0,0,1,1165.409,443.74Z" transform="translate(-7.821 -17.702)" fill="#fe6865"/>
      <path id="Path_752" data-name="Path 752" d="M1165.249,433.91h21.234a2.337,2.337,0,0,1,2.339,2.335h0a2.337,2.337,0,0,1-2.339,2.335h-21.234a2.337,2.337,0,0,1-2.339-2.335h0A2.337,2.337,0,0,1,1165.249,433.91Z" transform="translate(-7.806 -16.785)" fill="#fe6865"/>
      <path id="Path_753" data-name="Path 753" d="M1160.376,553.65h86.394a9.066,9.066,0,0,1,9.066,9.066V586.2a9.066,9.066,0,0,1-9.066,9.066h-72.005l-12.43,17.009-1.958-17.009h0a9.066,9.066,0,0,1-9.066-9.066V562.716A9.066,9.066,0,0,1,1160.376,553.65Z" transform="translate(-6.723 -27.963)" fill="#ffc7cb"/>
      <path id="Path_754" data-name="Path 754" d="M1165.409,578.78h80.709a2.337,2.337,0,0,1,2.339,2.335h0a2.337,2.337,0,0,1-2.339,2.335h-80.709a2.337,2.337,0,0,1-2.339-2.335h0A2.337,2.337,0,0,1,1165.409,578.78Z" transform="translate(-7.821 -30.31)" fill="#fe6865"/>
      <path id="Path_755" data-name="Path 755" d="M1165.249,568.94h21.234a2.337,2.337,0,0,1,2.339,2.335h0a2.337,2.337,0,0,1-2.339,2.335h-21.234a2.337,2.337,0,0,1-2.339-2.335h0A2.337,2.337,0,0,1,1165.249,568.94Z" transform="translate(-7.806 -29.391)" fill="#fe6865"/>
      <path id="Path_756" data-name="Path 756" d="M1387.648,455.53l-2.067,7.407s-3.926,1.632-5.531,9.737c0,0,3.472.689,4.851-3.255,0,0-.58,8.1-3.346,12.965,0,0,.7,2.548,2.085,1.614,0,0,.7,2.548,2.783,1.151,0,0,3.019,3,3.69-6.492,0,0,1.169,3.237,2.312.453a23,23,0,0,0-.363-15.5l1.813-6.256Z" transform="translate(-28.078 -18.803)" fill="#f7b68b"/>
      <path id="Path_757" data-name="Path 757" d="M1386.218,366.1l-2.366,3.763a19.3,19.3,0,0,0-1.931,8.214l2.593,38.188-2.521,37.408,11.052.852-4.252-88.425Z" transform="translate(-28.253 -10.454)" fill="#d81322"/>
      <path id="Path_758" data-name="Path 758" d="M1426.048,607.763l-2.937-15.168-13.491-.054,2.8,15.223Z" transform="translate(-30.839 -31.594)" fill="#f7b68b"/>
      <path id="Path_759" data-name="Path 759" d="M1464.928,607.763,1462,592.594l-13.5-.054,2.811,15.223Z" transform="translate(-34.469 -31.594)" fill="#f7b68b"/>
      <path id="Path_760" data-name="Path 760" d="M1414.684,505.807v.209l8.4,76.52h-15.223l-16.637-75.451a25.163,25.163,0,0,1-.589-5.44V446.73l52.077,2.4,3.627,53.274,11.614,79.322h-16.02l-19.348-73.538a46.048,46.048,0,0,1-1.061-5.24c-1.324-9.357-3.626-25.785-3.626-25.785-.054.907-.127,2.022-.227,3.237,0,.218-.054.589-.091,1.07-.208,2.357-.5,5.068-.807,7.815-.852,7.444-1.859,15.123-2.049,16.492Z" transform="translate(-29.067 -17.982)" fill="#8bbdc8"/>
      <path id="Path_761" data-name="Path 761" d="M1385.94,327.45s.843,22.775,13.418,21.016l.689,2.72-5.812,4.161,8.586,6.709,18.631-11.288-9.357-.852-3.445-7.924-.526-6.972a3.572,3.572,0,0,0,2.285-2.131c1.1-2.638,1.106-6.945-2.72-6.029-.553.136-1.677-6.6-1.677-6.6Z" transform="translate(-28.628 -6.174)" fill="#f7b68b"/>
      <path id="Path_762" data-name="Path 762" d="M1447.54,407.4c-.209.281-.435.571-.671.852l-9.565.326,3.445,20.554h0l2.23,13.273h-23.808c-13.844,0-28.65.145-29.067.354s-1.006-13.6-1.414-26.166c-.073-2.194-.145-4.343-.208-6.346,0-1.315-.082-2.593-.118-3.781,0-.58,0-1.142-.054-1.677-.136-4.8-.218-8.06-.218-8.06l-.136.2-.109.154L1384.8,367.44a23.68,23.68,0,0,1,5.766-7.253l6.274-4.261c9.973,11.224,20.227-2.956,20.227-2.956l13.083,1.958a11.5,11.5,0,0,1,6.265,2.983l11.968,30.518,1.1,2.783C1452.617,397.658,1451.275,402.563,1447.54,407.4Z" transform="translate(-28.522 -9.228)" fill="#ed1c24"/>
      <path id="Path_763" data-name="Path 763" d="M1423.349,605.32s-5.63,6.346-13.6,0l-21.587,12.04a8.044,8.044,0,0,0-2.4,4.406h41.261S1426.885,609.3,1423.349,605.32Z" transform="translate(-28.611 -32.787)" fill="#212957"/>
      <path id="Path_764" data-name="Path 764" d="M1450.119,606.6s7.253,3.935,13.219-.8c0,0,5.2,9.211,5.612,16.02h-28.84s.8-6.011,5.2-7.616S1450.119,606.6,1450.119,606.6Z" transform="translate(-33.686 -32.832)" fill="#212957"/>
      <path id="Path_765" data-name="Path 765" d="M1407.109,326.322a3.511,3.511,0,0,0-2.385,2.647l.254,2.992-2.149,1.568-1.714-8.731s-2.257,3.119-5.73,3.5-2.167-2.5-2.167-2.5-6.347,5.177-9.556,4.47-7.679-4.152-4.95-9.429,12.4-9.275,19.946-5.594c0,0,8.105-2.91,9.112,3.79C1408.151,321.381,1407.109,326.322,1407.109,326.322Z" transform="translate(-27.875 -5.573)" fill="#11090a"/>
      <path id="Path_766" data-name="Path 766" d="M1419.457,466.591v14.96c0,.218-.054.589-.091,1.07-.208,2.357-.5,5.068-.807,7.815-.852,7.444-1.859,15.123-2.049,16.492l-6.4-48Z" transform="translate(-30.885 -19.12)" fill="#4ba2b5"/>
      <path id="Path_767" data-name="Path 767" d="M1340.59,400.649l2.6-8.359,22.059,5.812-1.768,8.187Z" transform="translate(-24.394 -12.899)" fill="url(#linear-gradient)"/>
      <path id="Path_768" data-name="Path 768" d="M1342.78,400.268l2.058-6.618,17.462,4.606-1.4,6.482Z" transform="translate(-24.599 -13.026)" fill="#e5e5e5"/>
      <path id="Path_769" data-name="Path 769" d="M1340.06,403.35l.48-1.84,22.893,5.639-.308,2.675Z" transform="translate(-24.345 -13.76)" fill="#131313"/>
      <path id="Path_770" data-name="Path 770" d="M1427.818,377.35l10.726,37.852,1.3,7.761-49.43-5.648,40.808-8.5Z" transform="translate(-29.046 -11.504)" fill="#d81322"/>
      <path id="Path_771" data-name="Path 771" d="M1394.948,407.75l-19.194-2.511-8.033-3.1-10.508-.408a8.774,8.774,0,0,0,5.866,3.119l-1.487,1.179-3.5-.136-7.353-1.94a18.953,18.953,0,0,0,6.21,4.787l7.253,5.44,10.816-2.258,17.725,5.857Z" transform="translate(-25.342 -13.78)" fill="#f7b68b"/>
      <path id="Path_772" data-name="Path 772" d="M1448.207,416.42l-58.977,2.493-8.16-.363V404.08l5.812-.127,62.2-8.8S1457.309,407.072,1448.207,416.42Z" transform="translate(-28.173 -13.166)" fill="#ed1c24"/>
      <path id="Path_773" data-name="Path 773" d="M1141.831,380.96c3.681-.979,7.507-2.557,9.565-5.766a12.462,12.462,0,0,0,1.723-5.023,19.533,19.533,0,0,0-1.378-10.4c-1.306-3.037-3.436-5.975-3.146-9.266.4-4.533,5.1-7.38,6.909-11.551a12.458,12.458,0,0,0-.426-9.837,28.2,28.2,0,0,0-5.984-8.105,19.43,19.43,0,0,0-6.074-4.533c-3.092-1.3-6.609-1.124-9.9-.508a27.15,27.15,0,0,0-8.994,3.246,20.85,20.85,0,0,0-8.06,8.93c-1.442,3.073-2.24,6.655-4.814,8.867-1.931,1.659-4.714,2.384-6.047,4.533-1.75,2.865-.045,6.582-.49,9.919-.39,2.965-2.466,5.44-4.651,7.471a11.928,11.928,0,0,0-2.04,2.212,7.768,7.768,0,0,0-1.024,3.164c-.979,7.444,4.334,14.887,11.4,17.435,6.6,2.375,13.881,1,20.753-.4Z" transform="translate(-1.642 -5.73)" fill="#0c124c"/>
      <path id="Path_774" data-name="Path 774" d="M1129.371,330.3l-1.351,6.736s-7.416-.671-.671,7.416L1122,361.978l14.823,9.438,2.72-6.736s-4.044-8.087-4.044-10.78c0,0,13.482,1.351,12.131-20.218Z" transform="translate(-3.987 -7.112)" fill="#ffd3bb"/>
      <path id="Path_775" data-name="Path 775" d="M1152.023,334.677s-12.131,10.78-24.262,0l-1.351-6.736,12.131-1.351Z" transform="translate(-4.399 -6.765)" fill="#0c124c"/>
      <path id="Path_776" data-name="Path 776" d="M1150.337,395.308H1101.07l3.01-23.083a9.62,9.62,0,0,1,4.071-6.673c3.626-2.53,8.749-5.667,13.173-5.286,1.741.209,5.268,8.713,13.545,1.6,0,0,12.494.227,13.844,9.656l1.342,20.218Z" transform="translate(-2.033 -9.906)" fill="#fe6865"/>
      <g id="Group_382" data-name="Group 382" transform="translate(1114.361 456.977)">
        <path id="Path_777" data-name="Path 777" d="M1128.952,479.068l2.957-.68,7.476,32.508-2.952.7c-7.861,1.808-15.907-4.008-17.973-12.991S1121.091,480.876,1128.952,479.068Z" transform="translate(-1117.972 -477.914)" fill="#fd9f00"/>
        <g id="Group_377" data-name="Group 377" transform="translate(0 0.474)">
          <g id="Group_376" data-name="Group 376" clip-path="url(#clip-path-2)">
            <g id="Group_375" data-name="Group 375" transform="translate(-5.824 -0.352)">
              <rect id="Rectangle_226" data-name="Rectangle 226" width="19.863" height="0.829" transform="matrix(0.975, -0.224, 0.224, 0.975, 7.489, 37.017)" fill="#e38601"/>
              <rect id="Rectangle_227" data-name="Rectangle 227" width="19.863" height="0.829" transform="translate(7.007 34.922) rotate(-12.946)" fill="#e38601"/>
              <rect id="Rectangle_228" data-name="Rectangle 228" width="19.863" height="0.829" transform="matrix(0.975, -0.224, 0.224, 0.975, 6.458, 32.532)" fill="#e38601"/>
              <rect id="Rectangle_229" data-name="Rectangle 229" width="19.863" height="0.829" transform="translate(5.772 29.548) rotate(-12.948)" fill="#e38601"/>
              <rect id="Rectangle_230" data-name="Rectangle 230" width="19.863" height="0.829" transform="matrix(0.975, -0.224, 0.224, 0.975, 5.017, 26.269)" fill="#e38601"/>
              <rect id="Rectangle_231" data-name="Rectangle 231" width="19.863" height="0.829" transform="translate(4.195 22.693) rotate(-12.951)" fill="#e38601"/>
              <rect id="Rectangle_232" data-name="Rectangle 232" width="19.863" height="0.829" transform="translate(0 4.452) rotate(-12.951)" fill="#e38601"/>
              <rect id="Rectangle_233" data-name="Rectangle 233" width="19.863" height="0.829" transform="translate(0.482 6.547) rotate(-12.957)" fill="#e38601"/>
              <rect id="Rectangle_234" data-name="Rectangle 234" width="19.863" height="0.829" transform="matrix(0.975, -0.224, 0.224, 0.975, 1.031, 8.937)" fill="#e38601"/>
              <rect id="Rectangle_235" data-name="Rectangle 235" width="19.863" height="0.829" transform="matrix(0.975, -0.224, 0.224, 0.975, 1.718, 11.92)" fill="#e38601"/>
              <rect id="Rectangle_236" data-name="Rectangle 236" width="19.863" height="0.829" transform="translate(2.472 15.199) rotate(-12.95)" fill="#e38601"/>
              <rect id="Rectangle_237" data-name="Rectangle 237" width="19.863" height="0.829" transform="matrix(0.975, -0.224, 0.224, 0.975, 3.294, 18.776)" fill="#e38601"/>
            </g>
          </g>
        </g>
        <path id="Path_779" data-name="Path 779" d="M1122.42,497.731c2.065,8.983,10.113,14.8,17.972,12.992s12.558-10.555,10.493-19.538-10.113-14.8-17.973-12.991S1120.354,488.749,1122.42,497.731Z" transform="translate(-1118.342 -477.865)" fill="#ffd454"/>
        <path id="Path_780" data-name="Path 780" d="M1139.943,507.491c5.855-1.347,9.313-8.117,7.709-15.092s-7.672-11.554-13.527-10.208-9.312,8.116-7.708,15.091S1134.089,508.837,1139.943,507.491Z" transform="translate(-1118.724 -478.247)" fill="#ffb127"/>
        <path id="Path_781" data-name="Path 781" d="M1139.513,507.11c5.854-1.346,9.312-8.116,7.708-15.092a13.571,13.571,0,0,0-7.9-9.757c4.259,1.04,7.983,4.927,9.188,10.166,1.6,6.975-1.854,13.745-7.709,15.092a9.52,9.52,0,0,1-5.623-.451A9.353,9.353,0,0,0,1139.513,507.11Z" transform="translate(-1119.578 -478.275)" fill="#e38601"/>
        <g id="Group_381" data-name="Group 381" transform="translate(12.531 8.04)">
          <g id="Group_378" data-name="Group 378" transform="translate(0 0.302)">
            <path id="Path_782" data-name="Path 782" d="M1137.159,488.649a5.63,5.63,0,0,1,1.52.106,5.184,5.184,0,0,1,1.278.448,3.86,3.86,0,0,1,.957.683,2.151,2.151,0,0,1,.545.818.37.37,0,0,1-.03.292.347.347,0,0,1-.208.183l-2.185.67a.887.887,0,0,1-.4.048,1.165,1.165,0,0,1-.354-.109c-.042-.024-.112-.062-.208-.119a1.56,1.56,0,0,0-.383-.146,2.1,2.1,0,0,0-.567-.063,2.61,2.61,0,0,0-.761.133,4.788,4.788,0,0,0-.6.227,2.385,2.385,0,0,0-.476.294.963.963,0,0,0-.286.371.639.639,0,0,0-.015.461.589.589,0,0,0,.287.365,1.483,1.483,0,0,0,.629.146,7.232,7.232,0,0,0,1.075-.029q.658-.057,1.63-.154a8.891,8.891,0,0,1,1.745-.025,3.951,3.951,0,0,1,1.361.356,2.834,2.834,0,0,1,.993.792,3.95,3.95,0,0,1,.64,1.289,3.184,3.184,0,0,1,.128,1.365,3.43,3.43,0,0,1-.432,1.265,4.324,4.324,0,0,1-.936,1.109,6.518,6.518,0,0,1-1.369.9l.363,1.183a.441.441,0,0,1-.033.357.454.454,0,0,1-.277.231l-2.184.672a.479.479,0,0,1-.589-.312l-.379-1.234a6.015,6.015,0,0,1-1.6-.082,5.249,5.249,0,0,1-1.34-.438,3.417,3.417,0,0,1-1-.724,2.586,2.586,0,0,1-.582-.943.363.363,0,0,1,.029-.292.343.343,0,0,1,.208-.181l2.185-.673a.966.966,0,0,1,.384-.053,1.147,1.147,0,0,1,.323.092c.057.031.146.083.267.156a2.3,2.3,0,0,0,.453.2,2.267,2.267,0,0,0,.65.1,2.754,2.754,0,0,0,.88-.143,5.022,5.022,0,0,0,1.416-.645.751.751,0,0,0,.38-.873.535.535,0,0,0-.347-.35,2.313,2.313,0,0,0-.744-.11,10.783,10.783,0,0,0-1.193.066q-.717.076-1.694.154a4.844,4.844,0,0,1-2.887-.452,3.392,3.392,0,0,1-1.5-2.049,3.141,3.141,0,0,1-.13-1.193,3.44,3.44,0,0,1,.322-1.184,4.1,4.1,0,0,1,.759-1.089,5.405,5.405,0,0,1,1.184-.93l-.38-1.236a.474.474,0,0,1,.313-.587l2.183-.672a.467.467,0,0,1,.359.036.455.455,0,0,1,.229.275Z" transform="translate(-1131.793 -487.065)" fill="#e38601"/>
          </g>
          <g id="Group_380" data-name="Group 380" transform="translate(0.338)">
            <g id="Group_379" data-name="Group 379">
              <path id="Path_783" data-name="Path 783" d="M1137.531,488.316a5.59,5.59,0,0,1,1.52.107,5.178,5.178,0,0,1,1.278.447,3.878,3.878,0,0,1,.957.683,2.164,2.164,0,0,1,.545.818.37.37,0,0,1-.031.293.344.344,0,0,1-.207.182l-2.185.67a.889.889,0,0,1-.4.048,1.165,1.165,0,0,1-.354-.109c-.042-.024-.112-.062-.208-.119a1.56,1.56,0,0,0-.384-.146,2.1,2.1,0,0,0-.567-.063,2.617,2.617,0,0,0-.761.133,4.687,4.687,0,0,0-.595.228,2.379,2.379,0,0,0-.477.293.959.959,0,0,0-.286.371.633.633,0,0,0-.016.461.59.59,0,0,0,.287.365,1.474,1.474,0,0,0,.628.147,7.241,7.241,0,0,0,1.075-.03q.658-.057,1.631-.154a8.965,8.965,0,0,1,1.745-.025,3.94,3.94,0,0,1,1.36.357,2.815,2.815,0,0,1,.993.791,3.932,3.932,0,0,1,.641,1.289,3.215,3.215,0,0,1,.128,1.365,3.432,3.432,0,0,1-.432,1.265,4.344,4.344,0,0,1-.936,1.109,6.543,6.543,0,0,1-1.369.9l.363,1.184a.443.443,0,0,1-.033.356.453.453,0,0,1-.277.231l-2.184.672a.479.479,0,0,1-.589-.312l-.379-1.234a6.013,6.013,0,0,1-1.6-.082,5.25,5.25,0,0,1-1.34-.438,3.446,3.446,0,0,1-1-.724,2.613,2.613,0,0,1-.582-.944.371.371,0,0,1,.029-.292.346.346,0,0,1,.209-.181l2.184-.673a.967.967,0,0,1,.384-.053,1.154,1.154,0,0,1,.323.092c.056.031.146.082.266.156a2.271,2.271,0,0,0,.453.2,2.247,2.247,0,0,0,.65.1,2.781,2.781,0,0,0,.88-.142,5.028,5.028,0,0,0,1.416-.646.75.75,0,0,0,.379-.873.533.533,0,0,0-.346-.35,2.317,2.317,0,0,0-.745-.11,10.77,10.77,0,0,0-1.192.066q-.717.076-1.695.154a4.844,4.844,0,0,1-2.887-.452,3.392,3.392,0,0,1-1.5-2.049,3.141,3.141,0,0,1-.13-1.193,3.415,3.415,0,0,1,.322-1.184,4.129,4.129,0,0,1,.758-1.089,5.427,5.427,0,0,1,1.185-.93l-.381-1.236a.477.477,0,0,1,.313-.587l2.184-.672a.464.464,0,0,1,.358.036.454.454,0,0,1,.23.275Z" transform="translate(-1132.166 -486.732)" fill="#ffd454"/>
            </g>
          </g>
        </g>
      </g>
      <g id="Group_390" data-name="Group 390" transform="translate(1135.435 254.124)">
        <path id="Path_784" data-name="Path 784" d="M1151.636,255.268l2.806-.646,7.1,30.851-2.8.666c-7.46,1.715-15.1-3.805-17.058-12.33S1144.176,256.983,1151.636,255.268Z" transform="translate(-1141.216 -254.171)" fill="#fd9f00"/>
        <g id="Group_385" data-name="Group 385" transform="translate(0 0.451)">
          <g id="Group_384" data-name="Group 384" clip-path="url(#clip-path-3)">
            <g id="Group_383" data-name="Group 383" transform="translate(-5.527 -0.334)">
              <rect id="Rectangle_238" data-name="Rectangle 238" width="18.851" height="0.787" transform="matrix(0.975, -0.224, 0.224, 0.975, 7.108, 35.131)" fill="#e38601"/>
              <rect id="Rectangle_239" data-name="Rectangle 239" width="18.851" height="0.787" transform="translate(6.65 33.143) rotate(-12.946)" fill="#e38601"/>
              <rect id="Rectangle_240" data-name="Rectangle 240" width="18.851" height="0.787" transform="matrix(0.975, -0.224, 0.224, 0.975, 6.129, 30.874)" fill="#e38601"/>
              <rect id="Rectangle_241" data-name="Rectangle 241" width="18.851" height="0.787" transform="translate(5.477 28.043) rotate(-12.948)" fill="#e38601"/>
              <rect id="Rectangle_242" data-name="Rectangle 242" width="18.851" height="0.787" transform="matrix(0.975, -0.224, 0.224, 0.975, 4.762, 24.93)" fill="#e38601"/>
              <rect id="Rectangle_243" data-name="Rectangle 243" width="18.851" height="0.787" transform="translate(3.981 21.537) rotate(-12.951)" fill="#e38601"/>
              <rect id="Rectangle_244" data-name="Rectangle 244" width="18.851" height="0.787" transform="translate(0 4.225) rotate(-12.951)" fill="#e38601"/>
              <rect id="Rectangle_245" data-name="Rectangle 245" width="18.851" height="0.787" transform="translate(0.457 6.213) rotate(-12.957)" fill="#e38601"/>
              <rect id="Rectangle_246" data-name="Rectangle 246" width="18.851" height="0.787" transform="matrix(0.975, -0.224, 0.224, 0.975, 0.979, 8.481)" fill="#e38601"/>
              <rect id="Rectangle_247" data-name="Rectangle 247" width="18.851" height="0.787" transform="matrix(0.975, -0.224, 0.224, 0.975, 1.63, 11.313)" fill="#e38601"/>
              <rect id="Rectangle_248" data-name="Rectangle 248" width="18.851" height="0.787" transform="translate(2.346 14.425) rotate(-12.95)" fill="#e38601"/>
              <rect id="Rectangle_249" data-name="Rectangle 249" width="18.851" height="0.787" transform="matrix(0.975, -0.224, 0.224, 0.975, 3.126, 17.819)" fill="#e38601"/>
            </g>
          </g>
        </g>
        <path id="Path_786" data-name="Path 786" d="M1145.437,272.979c1.96,8.525,9.6,14.046,17.057,12.329s11.919-10.017,9.958-18.542-9.6-14.046-17.057-12.33S1143.476,264.454,1145.437,272.979Z" transform="translate(-1141.567 -254.124)" fill="#ffd454"/>
        <path id="Path_787" data-name="Path 787" d="M1162.068,282.241c5.557-1.277,8.838-7.7,7.316-14.322s-7.281-10.966-12.837-9.688-8.838,7.7-7.316,14.323S1156.512,283.519,1162.068,282.241Z" transform="translate(-1141.93 -254.487)" fill="#ffb127"/>
        <path id="Path_788" data-name="Path 788" d="M1161.66,281.881c5.556-1.278,8.838-7.7,7.316-14.323a12.884,12.884,0,0,0-7.5-9.26c4.042.987,7.576,4.676,8.719,9.648,1.522,6.619-1.759,13.045-7.316,14.322a9.036,9.036,0,0,1-5.337-.427A8.9,8.9,0,0,0,1161.66,281.881Z" transform="translate(-1142.741 -254.514)" fill="#e38601"/>
        <g id="Group_389" data-name="Group 389" transform="translate(11.893 7.63)">
          <g id="Group_386" data-name="Group 386" transform="translate(0 0.287)">
            <path id="Path_789" data-name="Path 789" d="M1159.426,264.359a5.326,5.326,0,0,1,1.443.1,4.931,4.931,0,0,1,1.212.424,3.667,3.667,0,0,1,.908.648,2.053,2.053,0,0,1,.517.776.351.351,0,0,1-.029.277.326.326,0,0,1-.2.173l-2.073.636a.843.843,0,0,1-.375.045,1.147,1.147,0,0,1-.336-.1c-.039-.024-.106-.059-.2-.112a1.449,1.449,0,0,0-.365-.139,2,2,0,0,0-.538-.06,2.508,2.508,0,0,0-.722.127,4.358,4.358,0,0,0-.565.216,2.23,2.23,0,0,0-.452.277.923.923,0,0,0-.272.353.609.609,0,0,0-.015.438.565.565,0,0,0,.273.347,1.414,1.414,0,0,0,.6.138,6.707,6.707,0,0,0,1.021-.027q.624-.054,1.548-.147a8.544,8.544,0,0,1,1.656-.024,3.749,3.749,0,0,1,1.291.338,2.686,2.686,0,0,1,.942.751,3.735,3.735,0,0,1,.607,1.224,3.017,3.017,0,0,1,.121,1.3,3.231,3.231,0,0,1-.41,1.2,4.111,4.111,0,0,1-.888,1.053,6.174,6.174,0,0,1-1.3.85l.344,1.123a.423.423,0,0,1-.032.339.431.431,0,0,1-.263.219l-2.073.637a.455.455,0,0,1-.559-.3l-.36-1.171a5.715,5.715,0,0,1-1.521-.077,5,5,0,0,1-1.272-.416,3.246,3.246,0,0,1-.947-.687,2.472,2.472,0,0,1-.552-.895.346.346,0,0,1,.027-.277.333.333,0,0,1,.2-.172l2.073-.637a.9.9,0,0,1,.365-.051,1.089,1.089,0,0,1,.306.087c.053.03.138.078.252.148a2.09,2.09,0,0,0,.431.188,2.151,2.151,0,0,0,.616.1,2.635,2.635,0,0,0,.835-.136,4.762,4.762,0,0,0,1.344-.612.712.712,0,0,0,.361-.829.508.508,0,0,0-.329-.333,2.213,2.213,0,0,0-.707-.1,10.2,10.2,0,0,0-1.131.063c-.454.048-.99.1-1.609.146a4.6,4.6,0,0,1-2.74-.429,3.224,3.224,0,0,1-1.42-1.945,2.994,2.994,0,0,1-.123-1.132,3.235,3.235,0,0,1,.306-1.123,3.88,3.88,0,0,1,.719-1.034,5.155,5.155,0,0,1,1.124-.882l-.361-1.172a.452.452,0,0,1,.3-.558l2.073-.638a.439.439,0,0,1,.34.034.431.431,0,0,1,.218.261Z" transform="translate(-1154.334 -262.856)" fill="#e38601"/>
          </g>
          <g id="Group_388" data-name="Group 388" transform="translate(0.32)">
            <g id="Group_387" data-name="Group 387">
              <path id="Path_790" data-name="Path 790" d="M1159.78,264.043a5.319,5.319,0,0,1,1.442.1,4.937,4.937,0,0,1,1.213.424,3.658,3.658,0,0,1,.908.648,2.056,2.056,0,0,1,.518.776.35.35,0,0,1-.029.277.328.328,0,0,1-.2.173l-2.074.636a.845.845,0,0,1-.375.045,1.14,1.14,0,0,1-.336-.1c-.04-.023-.107-.059-.2-.112a1.461,1.461,0,0,0-.365-.139,2,2,0,0,0-.538-.06,2.518,2.518,0,0,0-.723.127,4.458,4.458,0,0,0-.565.216,2.322,2.322,0,0,0-.452.277.93.93,0,0,0-.271.353.6.6,0,0,0-.015.438.562.562,0,0,0,.273.347,1.422,1.422,0,0,0,.6.139,6.851,6.851,0,0,0,1.021-.028q.624-.054,1.548-.147a8.543,8.543,0,0,1,1.656-.024,3.738,3.738,0,0,1,1.29.338,2.67,2.67,0,0,1,.942.751,3.74,3.74,0,0,1,.608,1.224,3.03,3.03,0,0,1,.121,1.3,3.262,3.262,0,0,1-.41,1.2,4.128,4.128,0,0,1-.888,1.053,6.217,6.217,0,0,1-1.3.85l.344,1.123a.449.449,0,0,1-.3.559l-2.073.637a.453.453,0,0,1-.559-.3l-.36-1.171a5.714,5.714,0,0,1-1.521-.077,5,5,0,0,1-1.272-.416,3.222,3.222,0,0,1-.947-.687,2.454,2.454,0,0,1-.553-.895.351.351,0,0,1,.028-.277.33.33,0,0,1,.2-.172l2.073-.637a.9.9,0,0,1,.365-.051,1.079,1.079,0,0,1,.306.087c.054.03.139.078.253.148a2.106,2.106,0,0,0,.43.188,2.158,2.158,0,0,0,.617.1,2.635,2.635,0,0,0,.835-.136,4.761,4.761,0,0,0,1.344-.612.711.711,0,0,0,.36-.829.507.507,0,0,0-.328-.333,2.223,2.223,0,0,0-.707-.1,10.241,10.241,0,0,0-1.132.063c-.453.048-.989.1-1.608.146a4.6,4.6,0,0,1-2.74-.429,3.22,3.22,0,0,1-1.42-1.945,2.987,2.987,0,0,1-.124-1.132,3.272,3.272,0,0,1,.306-1.123,3.921,3.921,0,0,1,.72-1.034,5.135,5.135,0,0,1,1.124-.882l-.361-1.172a.451.451,0,0,1,.3-.558l2.073-.638a.439.439,0,0,1,.34.034.432.432,0,0,1,.219.261Z" transform="translate(-1154.687 -262.54)" fill="#ffd454"/>
            </g>
          </g>
        </g>
      </g>
      <g id="Group_405" data-name="Group 405" transform="translate(1265.279 206.124)" opacity="0.2">
        <path id="Path_784-2" data-name="Path 784" d="M1151.636,255.268l2.806-.646,7.1,30.851-2.8.666c-7.46,1.715-15.1-3.805-17.058-12.33S1144.176,256.983,1151.636,255.268Z" transform="translate(-1141.216 -254.171)" fill="#fd9f00"/>
        <g id="Group_385-2" data-name="Group 385" transform="translate(0 0.451)">
          <g id="Group_384-2" data-name="Group 384" clip-path="url(#clip-path-3)">
            <g id="Group_383-2" data-name="Group 383" transform="translate(-5.527 -0.334)">
              <rect id="Rectangle_238-2" data-name="Rectangle 238" width="18.851" height="0.787" transform="matrix(0.975, -0.224, 0.224, 0.975, 7.108, 35.131)" fill="#e38601"/>
              <rect id="Rectangle_239-2" data-name="Rectangle 239" width="18.851" height="0.787" transform="translate(6.65 33.143) rotate(-12.946)" fill="#e38601"/>
              <rect id="Rectangle_240-2" data-name="Rectangle 240" width="18.851" height="0.787" transform="matrix(0.975, -0.224, 0.224, 0.975, 6.129, 30.874)" fill="#e38601"/>
              <rect id="Rectangle_241-2" data-name="Rectangle 241" width="18.851" height="0.787" transform="translate(5.478 28.043) rotate(-12.948)" fill="#e38601"/>
              <rect id="Rectangle_242-2" data-name="Rectangle 242" width="18.851" height="0.787" transform="matrix(0.975, -0.224, 0.224, 0.975, 4.762, 24.93)" fill="#e38601"/>
              <rect id="Rectangle_243-2" data-name="Rectangle 243" width="18.851" height="0.787" transform="translate(3.981 21.537) rotate(-12.951)" fill="#e38601"/>
              <rect id="Rectangle_244-2" data-name="Rectangle 244" width="18.851" height="0.787" transform="translate(0 4.225) rotate(-12.951)" fill="#e38601"/>
              <rect id="Rectangle_245-2" data-name="Rectangle 245" width="18.851" height="0.787" transform="translate(0.457 6.213) rotate(-12.957)" fill="#e38601"/>
              <rect id="Rectangle_246-2" data-name="Rectangle 246" width="18.851" height="0.787" transform="matrix(0.975, -0.224, 0.224, 0.975, 0.979, 8.481)" fill="#e38601"/>
              <rect id="Rectangle_247-2" data-name="Rectangle 247" width="18.851" height="0.787" transform="matrix(0.975, -0.224, 0.224, 0.975, 1.63, 11.313)" fill="#e38601"/>
              <rect id="Rectangle_248-2" data-name="Rectangle 248" width="18.851" height="0.787" transform="translate(2.346 14.425) rotate(-12.95)" fill="#e38601"/>
              <rect id="Rectangle_249-2" data-name="Rectangle 249" width="18.851" height="0.787" transform="matrix(0.975, -0.224, 0.224, 0.975, 3.126, 17.819)" fill="#e38601"/>
            </g>
          </g>
        </g>
        <path id="Path_786-2" data-name="Path 786" d="M1145.437,272.979c1.96,8.525,9.6,14.046,17.057,12.329s11.919-10.017,9.958-18.542-9.6-14.046-17.058-12.33S1143.476,264.454,1145.437,272.979Z" transform="translate(-1141.567 -254.124)" fill="#ffd454"/>
        <path id="Path_787-2" data-name="Path 787" d="M1162.068,282.241c5.557-1.277,8.838-7.7,7.316-14.322s-7.281-10.966-12.837-9.688-8.838,7.7-7.316,14.323S1156.512,283.519,1162.068,282.241Z" transform="translate(-1141.93 -254.487)" fill="#ffb127"/>
        <path id="Path_788-2" data-name="Path 788" d="M1161.66,281.881c5.556-1.278,8.838-7.7,7.315-14.323a12.884,12.884,0,0,0-7.5-9.26c4.042.987,7.576,4.676,8.719,9.649,1.522,6.619-1.759,13.045-7.315,14.322a9.036,9.036,0,0,1-5.337-.427A8.9,8.9,0,0,0,1161.66,281.881Z" transform="translate(-1142.74 -254.514)" fill="#e38601"/>
        <g id="Group_389-2" data-name="Group 389" transform="translate(11.893 7.63)">
          <g id="Group_386-2" data-name="Group 386" transform="translate(0 0.287)">
            <path id="Path_789-2" data-name="Path 789" d="M1159.426,264.359a5.33,5.33,0,0,1,1.443.1,4.932,4.932,0,0,1,1.212.424,3.662,3.662,0,0,1,.908.648,2.056,2.056,0,0,1,.517.776.35.35,0,0,1-.029.277.325.325,0,0,1-.2.173l-2.073.636a.843.843,0,0,1-.375.045,1.147,1.147,0,0,1-.336-.1c-.039-.024-.106-.059-.2-.112a1.441,1.441,0,0,0-.365-.139,2,2,0,0,0-.537-.06,2.51,2.51,0,0,0-.722.127,4.358,4.358,0,0,0-.565.216,2.242,2.242,0,0,0-.452.277.923.923,0,0,0-.272.353.608.608,0,0,0-.015.438.564.564,0,0,0,.273.347,1.415,1.415,0,0,0,.6.138,6.711,6.711,0,0,0,1.021-.027q.624-.054,1.548-.147a8.544,8.544,0,0,1,1.656-.024,3.746,3.746,0,0,1,1.291.338,2.682,2.682,0,0,1,.942.751,3.73,3.73,0,0,1,.607,1.224,3.019,3.019,0,0,1,.122,1.3,3.233,3.233,0,0,1-.41,1.2,4.114,4.114,0,0,1-.888,1.053,6.18,6.18,0,0,1-1.3.85l.345,1.123a.423.423,0,0,1-.032.339.43.43,0,0,1-.263.219l-2.073.637a.455.455,0,0,1-.56-.3l-.36-1.171a5.713,5.713,0,0,1-1.521-.077,5.005,5.005,0,0,1-1.272-.416,3.246,3.246,0,0,1-.947-.687,2.475,2.475,0,0,1-.552-.895.346.346,0,0,1,.027-.277.332.332,0,0,1,.2-.172l2.073-.637a.9.9,0,0,1,.365-.051,1.092,1.092,0,0,1,.307.087c.053.03.138.078.252.148a2.1,2.1,0,0,0,.431.188,2.147,2.147,0,0,0,.616.1,2.635,2.635,0,0,0,.835-.136,4.759,4.759,0,0,0,1.344-.612.712.712,0,0,0,.361-.829.508.508,0,0,0-.329-.333,2.211,2.211,0,0,0-.707-.1,10.2,10.2,0,0,0-1.131.063c-.454.048-.99.1-1.608.146a4.6,4.6,0,0,1-2.74-.429,3.224,3.224,0,0,1-1.42-1.945,3,3,0,0,1-.124-1.132,3.237,3.237,0,0,1,.306-1.123,3.884,3.884,0,0,1,.719-1.034,5.158,5.158,0,0,1,1.124-.882l-.361-1.172a.452.452,0,0,1,.3-.558l2.073-.638a.44.44,0,0,1,.34.034.43.43,0,0,1,.218.261Z" transform="translate(-1154.334 -262.856)" fill="#e38601"/>
          </g>
          <g id="Group_388-2" data-name="Group 388" transform="translate(0.32)">
            <g id="Group_387-2" data-name="Group 387">
              <path id="Path_790-2" data-name="Path 790" d="M1159.78,264.043a5.322,5.322,0,0,1,1.442.1,4.937,4.937,0,0,1,1.213.424,3.661,3.661,0,0,1,.908.648,2.06,2.06,0,0,1,.518.776.35.35,0,0,1-.029.277.327.327,0,0,1-.2.173l-2.074.636a.845.845,0,0,1-.375.045,1.141,1.141,0,0,1-.336-.1c-.04-.023-.107-.059-.2-.112a1.465,1.465,0,0,0-.365-.139,2,2,0,0,0-.538-.06,2.519,2.519,0,0,0-.723.127,4.46,4.46,0,0,0-.565.216,2.323,2.323,0,0,0-.452.277.929.929,0,0,0-.271.353.605.605,0,0,0-.015.438.563.563,0,0,0,.273.347,1.422,1.422,0,0,0,.6.139,6.85,6.85,0,0,0,1.021-.028q.624-.054,1.548-.147a8.545,8.545,0,0,1,1.656-.024,3.734,3.734,0,0,1,1.29.338,2.67,2.67,0,0,1,.942.751,3.741,3.741,0,0,1,.608,1.224,3.03,3.03,0,0,1,.122,1.3,3.262,3.262,0,0,1-.41,1.2,4.125,4.125,0,0,1-.888,1.053,6.217,6.217,0,0,1-1.3.849l.345,1.123a.45.45,0,0,1-.3.559l-2.073.637a.453.453,0,0,1-.559-.3l-.36-1.171a5.716,5.716,0,0,1-1.521-.077,5,5,0,0,1-1.272-.416,3.223,3.223,0,0,1-.947-.687,2.459,2.459,0,0,1-.553-.895.351.351,0,0,1,.028-.277.33.33,0,0,1,.2-.172l2.073-.637a.9.9,0,0,1,.365-.051,1.077,1.077,0,0,1,.306.087c.054.03.139.078.253.148a2.1,2.1,0,0,0,.43.188,2.153,2.153,0,0,0,.617.1,2.635,2.635,0,0,0,.835-.136,4.759,4.759,0,0,0,1.344-.612.711.711,0,0,0,.36-.829.506.506,0,0,0-.328-.333,2.223,2.223,0,0,0-.707-.1,10.25,10.25,0,0,0-1.132.063c-.453.048-.989.1-1.608.146a4.6,4.6,0,0,1-2.74-.429,3.221,3.221,0,0,1-1.42-1.945,2.99,2.99,0,0,1-.124-1.132,3.27,3.27,0,0,1,.306-1.123,3.917,3.917,0,0,1,.72-1.034,5.131,5.131,0,0,1,1.124-.882l-.361-1.172a.451.451,0,0,1,.3-.558l2.073-.638a.439.439,0,0,1,.34.034.433.433,0,0,1,.219.261Z" transform="translate(-1154.687 -262.54)" fill="#ffd454"/>
            </g>
          </g>
        </g>
      </g>
      <g id="Group_399" data-name="Group 399" transform="translate(1389.493 268.796)">
        <g id="Group_394" data-name="Group 394" transform="translate(1.024 4.319)">
          <path id="Path_791" data-name="Path 791" d="M1454.491,278.38l-1.87-3.309-30.057,17.144,1.849,3.321c2.711,5.016,11.642,5.241,19.948.5S1457.2,283.4,1454.491,278.38Z" transform="translate(-1422.565 -275.071)" fill="#fd9f00"/>
          <g id="Group_393" data-name="Group 393">
            <g id="Group_392" data-name="Group 392" clip-path="url(#clip-path-5)">
              <g id="Group_391" data-name="Group 391" transform="translate(-0.305 -0.028)">
                <path id="Path_792" data-name="Path 792" d="M1428.9,306.762l.747-.426-6.677-12.352-.747.426Z" transform="translate(-1422.228 -276.809)" fill="#e38601"/>
                <path id="Path_793" data-name="Path 793" d="M1431.041,305.543l.747-.426-6.677-12.352-.747.426Z" transform="translate(-1422.428 -276.695)" fill="#e38601"/>
                <path id="Path_794" data-name="Path 794" d="M1433.479,304.153l.747-.426-6.677-12.352-.747.426Z" transform="translate(-1422.655 -276.565)" fill="#e38601"/>
                <path id="Path_795" data-name="Path 795" d="M1436.521,302.417l.747-.426-6.677-12.352-.747.426Z" transform="translate(-1422.939 -276.403)" fill="#e38601"/>
                <path id="Path_796" data-name="Path 796" d="M1439.866,300.51l.747-.426-6.677-12.352-.747.426Z" transform="translate(-1423.251 -276.225)" fill="#e38601"/>
                <path id="Path_797" data-name="Path 797" d="M1443.513,298.43l.747-.426-6.677-12.352-.747.426Z" transform="translate(-1423.592 -276.031)" fill="#e38601"/>
                <path id="Path_798" data-name="Path 798" d="M1455.44,275.466l6.677,12.352.747-.426-6.677-12.352Z" transform="translate(-1425.329 -275.04)" fill="#e38601"/>
                <path id="Path_799" data-name="Path 799" d="M1459.981,289.037l.747-.426-6.677-12.353-.747.426Z" transform="translate(-1425.13 -275.154)" fill="#e38601"/>
                <path id="Path_800" data-name="Path 800" d="M1457.542,290.427l.747-.426-6.677-12.352-.747.426Z" transform="translate(-1424.902 -275.284)" fill="#e38601"/>
                <path id="Path_801" data-name="Path 801" d="M1454.5,292.163l.747-.426-6.677-12.352-.747.426Z" transform="translate(-1424.618 -275.446)" fill="#e38601"/>
                <path id="Path_802" data-name="Path 802" d="M1451.156,294.07l.747-.426-6.677-12.352-.747.426Z" transform="translate(-1424.306 -275.624)" fill="#e38601"/>
                <path id="Path_803" data-name="Path 803" d="M1447.509,296.15l.747-.426-6.677-12.352-.747.426Z" transform="translate(-1423.965 -275.818)" fill="#e38601"/>
              </g>
            </g>
          </g>
        </g>
        <path id="Path_805" data-name="Path 805" d="M1442.168,291.881c-8.306,4.737-17.236,4.511-19.948-.5s1.824-12.922,10.13-17.66,17.237-4.512,19.948.5S1450.474,287.144,1442.168,291.881Z" transform="translate(-1421.435 -270.307)" fill="#ffd454"/>
        <path id="Path_806" data-name="Path 806" d="M1425.93,289.778c-2.019-3.735,1.585-9.768,8.035-13.446s13.339-3.632,15.359.1-1.585,9.767-8.035,13.446S1427.949,293.515,1425.93,289.778Z" transform="translate(-1421.802 -270.615)" fill="#ffb127"/>
        <path id="Path_807" data-name="Path 807" d="M1426.938,290.147c-2.019-3.736,1.585-9.768,8.035-13.446,4.349-2.481,8.9-3.265,12.018-2.368-3.091-1.425-8.183-.764-13.027,2-6.45,3.678-10.054,9.711-8.035,13.446a5.274,5.274,0,0,0,3.339,2.471A4.889,4.889,0,0,1,1426.938,290.147Z" transform="translate(-1421.802 -270.615)" fill="#e38601"/>
        <g id="Group_398" data-name="Group 398" transform="translate(8.722 6.952)">
          <g id="Group_395" data-name="Group 395" transform="translate(0.142 0.3)">
            <path id="Path_808" data-name="Path 808" d="M1444.637,281.049a3.328,3.328,0,0,1,.032,1.152,4.151,4.151,0,0,1-.315,1.088,4.2,4.2,0,0,1-.569.93,3.047,3.047,0,0,1-.735.673.486.486,0,0,1-.283.075.219.219,0,0,1-.193-.092l-.835-1.382a.459.459,0,0,1-.081-.275.9.9,0,0,1,.073-.3c.019-.039.049-.1.1-.193a1.37,1.37,0,0,0,.116-.768,1.33,1.33,0,0,0-.195-.515,2.415,2.415,0,0,0-.27-.362,1.285,1.285,0,0,0-.323-.252.766.766,0,0,0-.381-.087.879.879,0,0,0-.443.142.786.786,0,0,0-.324.334,1.05,1.05,0,0,0-.084.51,3.918,3.918,0,0,0,.123.781c.075.309.171.693.291,1.147a4.9,4.9,0,0,1,.179,1.274,2.891,2.891,0,0,1-.221,1.118,3.234,3.234,0,0,1-.67.994,5.83,5.83,0,0,1-1.179.9,4.661,4.661,0,0,1-1.3.549,3.887,3.887,0,0,1-1.25.1,3.264,3.264,0,0,1-1.144-.318,3.615,3.615,0,0,1-.978-.708l-1.1.661a.589.589,0,0,1-.345.094.284.284,0,0,1-.246-.127l-.836-1.381a.278.278,0,0,1,0-.277.585.585,0,0,1,.243-.26l1.148-.69a3.518,3.518,0,0,1-.063-1.2,4.153,4.153,0,0,1,.3-1.131,3.783,3.783,0,0,1,.606-.974,3.734,3.734,0,0,1,.852-.743.487.487,0,0,1,.282-.075.218.218,0,0,1,.192.092l.837,1.381a.488.488,0,0,1,.085.265.846.846,0,0,1-.06.267c-.025.053-.066.135-.126.248a2.018,2.018,0,0,0-.15.4,1.461,1.461,0,0,0-.038.511,1.385,1.385,0,0,0,.214.6,2.522,2.522,0,0,0,.743.826.765.765,0,0,0,.87-.012.664.664,0,0,0,.306-.372,1.521,1.521,0,0,0,.039-.584,5.728,5.728,0,0,0-.169-.855q-.138-.5-.3-1.193a3.19,3.19,0,0,1,.179-2.272,5.293,5.293,0,0,1,2.961-2.275,4.04,4.04,0,0,1,1.162-.158,3.434,3.434,0,0,1,1.11.194,3.231,3.231,0,0,1,1,.56l1.15-.691a.6.6,0,0,1,.345-.092.281.281,0,0,1,.246.127l.837,1.381a.288.288,0,0,1,0,.276.594.594,0,0,1-.242.26Z" transform="translate(-1431.212 -278.305)" fill="#e38601"/>
          </g>
          <g id="Group_397" data-name="Group 397">
            <g id="Group_396" data-name="Group 396">
              <path id="Path_809" data-name="Path 809" d="M1444.48,280.718a3.327,3.327,0,0,1,.033,1.152,4.179,4.179,0,0,1-.315,1.088,4.255,4.255,0,0,1-.569.93,3.084,3.084,0,0,1-.735.673.488.488,0,0,1-.283.075.221.221,0,0,1-.193-.092l-.835-1.382a.466.466,0,0,1-.082-.276.916.916,0,0,1,.074-.3c.019-.039.049-.1.094-.193a1.262,1.262,0,0,0,.106-.33,1.294,1.294,0,0,0,.01-.437,1.31,1.31,0,0,0-.195-.515,2.255,2.255,0,0,0-.27-.362,1.3,1.3,0,0,0-.323-.253.763.763,0,0,0-.381-.086.876.876,0,0,0-.442.142.786.786,0,0,0-.325.333,1.054,1.054,0,0,0-.084.51,3.919,3.919,0,0,0,.123.781c.075.31.171.693.292,1.147a4.907,4.907,0,0,1,.178,1.274,2.861,2.861,0,0,1-.221,1.119,3.217,3.217,0,0,1-.67.993,5.825,5.825,0,0,1-1.178.9,4.7,4.7,0,0,1-1.3.549,3.833,3.833,0,0,1-1.249.1,3.249,3.249,0,0,1-1.145-.318,3.576,3.576,0,0,1-.978-.708l-1.1.661a.585.585,0,0,1-.344.094.285.285,0,0,1-.247-.126l-.836-1.382a.278.278,0,0,1,0-.276.585.585,0,0,1,.243-.26l1.149-.69a3.5,3.5,0,0,1-.063-1.2,4.122,4.122,0,0,1,.3-1.131,3.825,3.825,0,0,1,1.458-1.716.481.481,0,0,1,.282-.076.217.217,0,0,1,.191.092l.837,1.382a.481.481,0,0,1,.085.264.851.851,0,0,1-.059.268c-.025.052-.066.134-.126.248a1.919,1.919,0,0,0-.15.4,1.454,1.454,0,0,0-.039.511,1.386,1.386,0,0,0,.214.6,2.522,2.522,0,0,0,.743.826.765.765,0,0,0,.87-.012.661.661,0,0,0,.3-.372,1.515,1.515,0,0,0,.04-.584,5.848,5.848,0,0,0-.17-.854c-.091-.335-.19-.732-.3-1.194a3.2,3.2,0,0,1,.179-2.272,5.293,5.293,0,0,1,2.961-2.275,4.047,4.047,0,0,1,1.162-.158,3.44,3.44,0,0,1,1.111.194,3.259,3.259,0,0,1,1,.56l1.15-.69a.589.589,0,0,1,.344-.092.281.281,0,0,1,.247.126l.836,1.381a.288.288,0,0,1,0,.276.593.593,0,0,1-.243.26Z" transform="translate(-1431.055 -277.974)" fill="#ffd454"/>
            </g>
          </g>
        </g>
      </g>
    </g>
  </g>
</svg>
